<svg width="490" height="202" viewBox="95 125 300 80" fill="none" xmlns="http://www.w3.org/2000/svg">
<style>
@keyframes pulsate {
    100% {
    	--filter: url(#filter0_dddddddd_244_3);
    }

    0% {
    	--filter: url(#filter1_dddddddd_244_2);
    }
}

    #svgFilter {
    --filter: url(#filter0_dddddddd_244_3);
    animation: pulsate 0.31s ease-in-out infinite alternate;
    }
</style>
    <g filter="var(--filter)" id='svgFilter'>
        <mask id="path-1-outside-1_244_3" maskUnits="userSpaceOnUse" x="130" y="130" width="230"
            height="42" fill="black">
            <rect fill="white" x="130" y="130" width="230" height="42" />
            <path
                d="M150.818 142.312C150.619 141.621 150.34 141.01 149.98 140.48C149.62 139.94 149.18 139.486 148.659 139.116C148.148 138.738 147.561 138.449 146.898 138.25C146.244 138.051 145.52 137.952 144.724 137.952C143.238 137.952 141.931 138.321 140.804 139.06C139.687 139.798 138.815 140.873 138.19 142.284C137.565 143.686 137.253 145.4 137.253 147.426C137.253 149.453 137.561 151.176 138.176 152.597C138.792 154.017 139.663 155.101 140.79 155.849C141.917 156.588 143.247 156.957 144.781 156.957C146.173 156.957 147.362 156.711 148.347 156.219C149.341 155.717 150.098 155.011 150.619 154.102C151.15 153.193 151.415 152.118 151.415 150.878L152.665 151.062H145.165V146.432H157.338V150.097C157.338 152.653 156.798 154.85 155.719 156.688C154.639 158.515 153.152 159.926 151.259 160.92C149.365 161.905 147.196 162.398 144.753 162.398C142.026 162.398 139.63 161.796 137.565 160.594C135.501 159.382 133.891 157.663 132.736 155.438C131.59 153.203 131.017 150.551 131.017 147.483C131.017 145.125 131.358 143.023 132.04 141.176C132.731 139.32 133.697 137.748 134.938 136.46C136.178 135.172 137.622 134.192 139.27 133.52C140.918 132.848 142.703 132.511 144.625 132.511C146.273 132.511 147.807 132.753 149.227 133.236C150.648 133.709 151.907 134.382 153.006 135.253C154.114 136.124 155.018 137.161 155.719 138.364C156.42 139.557 156.869 140.873 157.068 142.312H150.818ZM168.066 162.412C166.674 162.412 165.433 162.17 164.344 161.688C163.255 161.195 162.394 160.471 161.759 159.514C161.134 158.548 160.822 157.346 160.822 155.906C160.822 154.694 161.044 153.676 161.489 152.852C161.934 152.028 162.54 151.366 163.308 150.864C164.075 150.362 164.946 149.983 165.921 149.727C166.906 149.472 167.938 149.292 169.018 149.188C170.287 149.055 171.309 148.932 172.086 148.818C172.862 148.695 173.426 148.515 173.776 148.278C174.127 148.042 174.302 147.691 174.302 147.227V147.142C174.302 146.242 174.018 145.546 173.45 145.054C172.891 144.562 172.095 144.315 171.063 144.315C169.974 144.315 169.108 144.557 168.464 145.04C167.82 145.513 167.394 146.11 167.185 146.83L161.589 146.375C161.873 145.049 162.432 143.903 163.265 142.938C164.098 141.962 165.173 141.214 166.489 140.693C167.815 140.163 169.349 139.898 171.092 139.898C172.304 139.898 173.464 140.04 174.572 140.324C175.689 140.608 176.679 141.048 177.54 141.645C178.412 142.241 179.098 143.009 179.6 143.946C180.102 144.874 180.353 145.987 180.353 147.284V162H174.614V158.974H174.444C174.094 159.656 173.625 160.258 173.038 160.778C172.451 161.29 171.745 161.692 170.921 161.986C170.097 162.27 169.146 162.412 168.066 162.412ZM169.799 158.236C170.689 158.236 171.475 158.061 172.157 157.71C172.839 157.35 173.374 156.867 173.762 156.261C174.15 155.655 174.344 154.969 174.344 154.202V151.886C174.155 152.009 173.895 152.123 173.563 152.227C173.241 152.322 172.877 152.412 172.469 152.497C172.062 152.573 171.655 152.644 171.248 152.71C170.841 152.767 170.471 152.819 170.14 152.866C169.43 152.971 168.809 153.136 168.279 153.364C167.749 153.591 167.337 153.899 167.043 154.287C166.75 154.666 166.603 155.139 166.603 155.707C166.603 156.531 166.901 157.161 167.498 157.597C168.104 158.023 168.871 158.236 169.799 158.236ZM185.048 162V140.182H190.815V144.031H191.07C191.525 142.753 192.282 141.744 193.343 141.006C194.404 140.267 195.673 139.898 197.15 139.898C198.646 139.898 199.92 140.272 200.971 141.02C202.022 141.759 202.723 142.762 203.073 144.031H203.3C203.746 142.781 204.55 141.782 205.715 141.034C206.889 140.277 208.277 139.898 209.877 139.898C211.913 139.898 213.566 140.546 214.835 141.844C216.113 143.132 216.752 144.959 216.752 147.327V162H210.715V148.52C210.715 147.308 210.393 146.399 209.749 145.793C209.105 145.187 208.3 144.884 207.335 144.884C206.236 144.884 205.379 145.234 204.763 145.935C204.148 146.626 203.84 147.54 203.84 148.676V162H197.974V148.392C197.974 147.322 197.666 146.47 197.05 145.835C196.444 145.201 195.644 144.884 194.65 144.884C193.978 144.884 193.371 145.054 192.832 145.395C192.301 145.726 191.88 146.195 191.567 146.801C191.255 147.398 191.099 148.098 191.099 148.903V162H185.048ZM221.532 162V140.182H227.583V162H221.532ZM224.572 137.369C223.672 137.369 222.9 137.071 222.256 136.474C221.622 135.868 221.305 135.144 221.305 134.301C221.305 133.468 221.622 132.753 222.256 132.156C222.9 131.55 223.672 131.247 224.572 131.247C225.471 131.247 226.238 131.55 226.873 132.156C227.517 132.753 227.839 133.468 227.839 134.301C227.839 135.144 227.517 135.868 226.873 136.474C226.238 137.071 225.471 137.369 224.572 137.369ZM238.482 149.386V162H232.43V140.182H238.197V144.031H238.453C238.936 142.762 239.746 141.759 240.882 141.02C242.018 140.272 243.396 139.898 245.016 139.898C246.531 139.898 247.852 140.229 248.979 140.892C250.106 141.555 250.982 142.502 251.607 143.733C252.232 144.955 252.544 146.413 252.544 148.108V162H246.493V149.188C246.502 147.852 246.161 146.811 245.47 146.062C244.779 145.305 243.827 144.926 242.615 144.926C241.801 144.926 241.081 145.101 240.456 145.452C239.84 145.802 239.357 146.313 239.007 146.986C238.666 147.649 238.491 148.449 238.482 149.386ZM267.143 170.636C265.183 170.636 263.502 170.366 262.1 169.827C260.708 169.296 259.6 168.572 258.776 167.653C257.952 166.735 257.417 165.703 257.171 164.557L262.768 163.804C262.938 164.24 263.208 164.647 263.577 165.026C263.947 165.404 264.434 165.707 265.04 165.935C265.656 166.171 266.404 166.29 267.285 166.29C268.601 166.29 269.685 165.968 270.538 165.324C271.399 164.689 271.83 163.624 271.83 162.128V158.136H271.575C271.309 158.742 270.912 159.315 270.381 159.855C269.851 160.395 269.169 160.835 268.336 161.176C267.503 161.517 266.508 161.688 265.353 161.688C263.715 161.688 262.223 161.309 260.879 160.551C259.543 159.784 258.478 158.615 257.683 157.043C256.897 155.461 256.504 153.463 256.504 151.048C256.504 148.577 256.906 146.512 257.711 144.855C258.516 143.198 259.586 141.957 260.921 141.134C262.266 140.31 263.738 139.898 265.339 139.898C266.56 139.898 267.583 140.106 268.407 140.523C269.231 140.93 269.894 141.441 270.396 142.057C270.907 142.663 271.3 143.259 271.575 143.847H271.802V140.182H277.81V162.213C277.81 164.069 277.356 165.622 276.447 166.872C275.538 168.122 274.278 169.06 272.668 169.685C271.068 170.319 269.226 170.636 267.143 170.636ZM267.271 157.142C268.246 157.142 269.07 156.901 269.742 156.418C270.424 155.925 270.945 155.224 271.305 154.315C271.674 153.397 271.859 152.298 271.859 151.02C271.859 149.741 271.679 148.634 271.319 147.696C270.959 146.749 270.438 146.015 269.756 145.494C269.075 144.973 268.246 144.713 267.271 144.713C266.276 144.713 265.438 144.983 264.756 145.523C264.075 146.053 263.558 146.792 263.208 147.739C262.858 148.686 262.683 149.779 262.683 151.02C262.683 152.279 262.858 153.368 263.208 154.287C263.568 155.196 264.084 155.902 264.756 156.403C265.438 156.896 266.276 157.142 267.271 157.142ZM282.739 162V132.909H288.89V144.912H301.376V132.909H307.512V162H301.376V149.983H288.89V162H282.739ZM326.461 152.71V140.182H332.512V162H326.702V158.037H326.475C325.983 159.315 325.164 160.343 324.018 161.119C322.881 161.896 321.494 162.284 319.856 162.284C318.397 162.284 317.114 161.953 316.006 161.29C314.898 160.627 314.032 159.685 313.407 158.463C312.791 157.241 312.479 155.778 312.469 154.074V140.182H318.521V152.994C318.53 154.282 318.876 155.3 319.558 156.048C320.239 156.796 321.153 157.17 322.299 157.17C323.028 157.17 323.71 157.005 324.344 156.673C324.979 156.332 325.49 155.83 325.879 155.168C326.276 154.505 326.47 153.686 326.461 152.71ZM337.466 162V132.909H343.517V143.847H343.702C343.967 143.259 344.35 142.663 344.852 142.057C345.364 141.441 346.027 140.93 346.841 140.523C347.665 140.106 348.688 139.898 349.909 139.898C351.5 139.898 352.968 140.314 354.312 141.148C355.657 141.972 356.732 143.217 357.537 144.884C358.342 146.541 358.744 148.619 358.744 151.119C358.744 153.553 358.351 155.608 357.565 157.284C356.789 158.951 355.728 160.215 354.384 161.077C353.048 161.929 351.552 162.355 349.895 162.355C348.721 162.355 347.722 162.161 346.898 161.773C346.083 161.384 345.416 160.897 344.895 160.31C344.374 159.713 343.976 159.112 343.702 158.506H343.432V162H337.466ZM343.389 151.091C343.389 152.388 343.569 153.52 343.929 154.486C344.289 155.452 344.81 156.205 345.491 156.744C346.173 157.275 347.002 157.54 347.977 157.54C348.962 157.54 349.795 157.27 350.477 156.73C351.159 156.181 351.675 155.423 352.026 154.457C352.385 153.482 352.565 152.36 352.565 151.091C352.565 149.831 352.39 148.723 352.04 147.767C351.689 146.811 351.173 146.062 350.491 145.523C349.81 144.983 348.972 144.713 347.977 144.713C346.992 144.713 346.159 144.973 345.477 145.494C344.805 146.015 344.289 146.754 343.929 147.71C343.569 148.667 343.389 149.794 343.389 151.091Z" />
        </mask>
        <path
            d="M150.818 142.312C150.619 141.621 150.34 141.01 149.98 140.48C149.62 139.94 149.18 139.486 148.659 139.116C148.148 138.738 147.561 138.449 146.898 138.25C146.244 138.051 145.52 137.952 144.724 137.952C143.238 137.952 141.931 138.321 140.804 139.06C139.687 139.798 138.815 140.873 138.19 142.284C137.565 143.686 137.253 145.4 137.253 147.426C137.253 149.453 137.561 151.176 138.176 152.597C138.792 154.017 139.663 155.101 140.79 155.849C141.917 156.588 143.247 156.957 144.781 156.957C146.173 156.957 147.362 156.711 148.347 156.219C149.341 155.717 150.098 155.011 150.619 154.102C151.15 153.193 151.415 152.118 151.415 150.878L152.665 151.062H145.165V146.432H157.338V150.097C157.338 152.653 156.798 154.85 155.719 156.688C154.639 158.515 153.152 159.926 151.259 160.92C149.365 161.905 147.196 162.398 144.753 162.398C142.026 162.398 139.63 161.796 137.565 160.594C135.501 159.382 133.891 157.663 132.736 155.438C131.59 153.203 131.017 150.551 131.017 147.483C131.017 145.125 131.358 143.023 132.04 141.176C132.731 139.32 133.697 137.748 134.938 136.46C136.178 135.172 137.622 134.192 139.27 133.52C140.918 132.848 142.703 132.511 144.625 132.511C146.273 132.511 147.807 132.753 149.227 133.236C150.648 133.709 151.907 134.382 153.006 135.253C154.114 136.124 155.018 137.161 155.719 138.364C156.42 139.557 156.869 140.873 157.068 142.312H150.818ZM168.066 162.412C166.674 162.412 165.433 162.17 164.344 161.688C163.255 161.195 162.394 160.471 161.759 159.514C161.134 158.548 160.822 157.346 160.822 155.906C160.822 154.694 161.044 153.676 161.489 152.852C161.934 152.028 162.54 151.366 163.308 150.864C164.075 150.362 164.946 149.983 165.921 149.727C166.906 149.472 167.938 149.292 169.018 149.188C170.287 149.055 171.309 148.932 172.086 148.818C172.862 148.695 173.426 148.515 173.776 148.278C174.127 148.042 174.302 147.691 174.302 147.227V147.142C174.302 146.242 174.018 145.546 173.45 145.054C172.891 144.562 172.095 144.315 171.063 144.315C169.974 144.315 169.108 144.557 168.464 145.04C167.82 145.513 167.394 146.11 167.185 146.83L161.589 146.375C161.873 145.049 162.432 143.903 163.265 142.938C164.098 141.962 165.173 141.214 166.489 140.693C167.815 140.163 169.349 139.898 171.092 139.898C172.304 139.898 173.464 140.04 174.572 140.324C175.689 140.608 176.679 141.048 177.54 141.645C178.412 142.241 179.098 143.009 179.6 143.946C180.102 144.874 180.353 145.987 180.353 147.284V162H174.614V158.974H174.444C174.094 159.656 173.625 160.258 173.038 160.778C172.451 161.29 171.745 161.692 170.921 161.986C170.097 162.27 169.146 162.412 168.066 162.412ZM169.799 158.236C170.689 158.236 171.475 158.061 172.157 157.71C172.839 157.35 173.374 156.867 173.762 156.261C174.15 155.655 174.344 154.969 174.344 154.202V151.886C174.155 152.009 173.895 152.123 173.563 152.227C173.241 152.322 172.877 152.412 172.469 152.497C172.062 152.573 171.655 152.644 171.248 152.71C170.841 152.767 170.471 152.819 170.14 152.866C169.43 152.971 168.809 153.136 168.279 153.364C167.749 153.591 167.337 153.899 167.043 154.287C166.75 154.666 166.603 155.139 166.603 155.707C166.603 156.531 166.901 157.161 167.498 157.597C168.104 158.023 168.871 158.236 169.799 158.236ZM185.048 162V140.182H190.815V144.031H191.07C191.525 142.753 192.282 141.744 193.343 141.006C194.404 140.267 195.673 139.898 197.15 139.898C198.646 139.898 199.92 140.272 200.971 141.02C202.022 141.759 202.723 142.762 203.073 144.031H203.3C203.746 142.781 204.55 141.782 205.715 141.034C206.889 140.277 208.277 139.898 209.877 139.898C211.913 139.898 213.566 140.546 214.835 141.844C216.113 143.132 216.752 144.959 216.752 147.327V162H210.715V148.52C210.715 147.308 210.393 146.399 209.749 145.793C209.105 145.187 208.3 144.884 207.335 144.884C206.236 144.884 205.379 145.234 204.763 145.935C204.148 146.626 203.84 147.54 203.84 148.676V162H197.974V148.392C197.974 147.322 197.666 146.47 197.05 145.835C196.444 145.201 195.644 144.884 194.65 144.884C193.978 144.884 193.371 145.054 192.832 145.395C192.301 145.726 191.88 146.195 191.567 146.801C191.255 147.398 191.099 148.098 191.099 148.903V162H185.048ZM221.532 162V140.182H227.583V162H221.532ZM224.572 137.369C223.672 137.369 222.9 137.071 222.256 136.474C221.622 135.868 221.305 135.144 221.305 134.301C221.305 133.468 221.622 132.753 222.256 132.156C222.9 131.55 223.672 131.247 224.572 131.247C225.471 131.247 226.238 131.55 226.873 132.156C227.517 132.753 227.839 133.468 227.839 134.301C227.839 135.144 227.517 135.868 226.873 136.474C226.238 137.071 225.471 137.369 224.572 137.369ZM238.482 149.386V162H232.43V140.182H238.197V144.031H238.453C238.936 142.762 239.746 141.759 240.882 141.02C242.018 140.272 243.396 139.898 245.016 139.898C246.531 139.898 247.852 140.229 248.979 140.892C250.106 141.555 250.982 142.502 251.607 143.733C252.232 144.955 252.544 146.413 252.544 148.108V162H246.493V149.188C246.502 147.852 246.161 146.811 245.47 146.062C244.779 145.305 243.827 144.926 242.615 144.926C241.801 144.926 241.081 145.101 240.456 145.452C239.84 145.802 239.357 146.313 239.007 146.986C238.666 147.649 238.491 148.449 238.482 149.386ZM267.143 170.636C265.183 170.636 263.502 170.366 262.1 169.827C260.708 169.296 259.6 168.572 258.776 167.653C257.952 166.735 257.417 165.703 257.171 164.557L262.768 163.804C262.938 164.24 263.208 164.647 263.577 165.026C263.947 165.404 264.434 165.707 265.04 165.935C265.656 166.171 266.404 166.29 267.285 166.29C268.601 166.29 269.685 165.968 270.538 165.324C271.399 164.689 271.83 163.624 271.83 162.128V158.136H271.575C271.309 158.742 270.912 159.315 270.381 159.855C269.851 160.395 269.169 160.835 268.336 161.176C267.503 161.517 266.508 161.688 265.353 161.688C263.715 161.688 262.223 161.309 260.879 160.551C259.543 159.784 258.478 158.615 257.683 157.043C256.897 155.461 256.504 153.463 256.504 151.048C256.504 148.577 256.906 146.512 257.711 144.855C258.516 143.198 259.586 141.957 260.921 141.134C262.266 140.31 263.738 139.898 265.339 139.898C266.56 139.898 267.583 140.106 268.407 140.523C269.231 140.93 269.894 141.441 270.396 142.057C270.907 142.663 271.3 143.259 271.575 143.847H271.802V140.182H277.81V162.213C277.81 164.069 277.356 165.622 276.447 166.872C275.538 168.122 274.278 169.06 272.668 169.685C271.068 170.319 269.226 170.636 267.143 170.636ZM267.271 157.142C268.246 157.142 269.07 156.901 269.742 156.418C270.424 155.925 270.945 155.224 271.305 154.315C271.674 153.397 271.859 152.298 271.859 151.02C271.859 149.741 271.679 148.634 271.319 147.696C270.959 146.749 270.438 146.015 269.756 145.494C269.075 144.973 268.246 144.713 267.271 144.713C266.276 144.713 265.438 144.983 264.756 145.523C264.075 146.053 263.558 146.792 263.208 147.739C262.858 148.686 262.683 149.779 262.683 151.02C262.683 152.279 262.858 153.368 263.208 154.287C263.568 155.196 264.084 155.902 264.756 156.403C265.438 156.896 266.276 157.142 267.271 157.142ZM282.739 162V132.909H288.89V144.912H301.376V132.909H307.512V162H301.376V149.983H288.89V162H282.739ZM326.461 152.71V140.182H332.512V162H326.702V158.037H326.475C325.983 159.315 325.164 160.343 324.018 161.119C322.881 161.896 321.494 162.284 319.856 162.284C318.397 162.284 317.114 161.953 316.006 161.29C314.898 160.627 314.032 159.685 313.407 158.463C312.791 157.241 312.479 155.778 312.469 154.074V140.182H318.521V152.994C318.53 154.282 318.876 155.3 319.558 156.048C320.239 156.796 321.153 157.17 322.299 157.17C323.028 157.17 323.71 157.005 324.344 156.673C324.979 156.332 325.49 155.83 325.879 155.168C326.276 154.505 326.47 153.686 326.461 152.71ZM337.466 162V132.909H343.517V143.847H343.702C343.967 143.259 344.35 142.663 344.852 142.057C345.364 141.441 346.027 140.93 346.841 140.523C347.665 140.106 348.688 139.898 349.909 139.898C351.5 139.898 352.968 140.314 354.312 141.148C355.657 141.972 356.732 143.217 357.537 144.884C358.342 146.541 358.744 148.619 358.744 151.119C358.744 153.553 358.351 155.608 357.565 157.284C356.789 158.951 355.728 160.215 354.384 161.077C353.048 161.929 351.552 162.355 349.895 162.355C348.721 162.355 347.722 162.161 346.898 161.773C346.083 161.384 345.416 160.897 344.895 160.31C344.374 159.713 343.976 159.112 343.702 158.506H343.432V162H337.466ZM343.389 151.091C343.389 152.388 343.569 153.52 343.929 154.486C344.289 155.452 344.81 156.205 345.491 156.744C346.173 157.275 347.002 157.54 347.977 157.54C348.962 157.54 349.795 157.27 350.477 156.73C351.159 156.181 351.675 155.423 352.026 154.457C352.385 153.482 352.565 152.36 352.565 151.091C352.565 149.831 352.39 148.723 352.04 147.767C351.689 146.811 351.173 146.062 350.491 145.523C349.81 144.983 348.972 144.713 347.977 144.713C346.992 144.713 346.159 144.973 345.477 145.494C344.805 146.015 344.289 146.754 343.929 147.71C343.569 148.667 343.389 149.794 343.389 151.091Z"
            fill="#FFECE2" />
        <path
            d="M150.818 142.312L149.857 142.589L150.065 143.312H150.818V142.312ZM149.98 140.48L149.148 141.035L149.153 141.042L149.98 140.48ZM148.659 139.116L148.064 139.92L148.072 139.926L148.081 139.932L148.659 139.116ZM146.898 138.25L146.607 139.207L146.61 139.208L146.898 138.25ZM140.804 139.06L140.256 138.223L140.253 138.225L140.804 139.06ZM138.19 142.284L139.104 142.691L139.105 142.689L138.19 142.284ZM140.79 155.849L140.237 156.683L140.242 156.686L140.79 155.849ZM148.347 156.219L148.794 157.113L148.797 157.111L148.347 156.219ZM150.619 154.102L149.756 153.598L149.752 153.605L150.619 154.102ZM151.415 150.878L151.561 149.889L150.415 149.719V150.878H151.415ZM152.665 151.062V152.062L152.811 150.073L152.665 151.062ZM145.165 151.062H144.165V152.062H145.165V151.062ZM145.165 146.432V145.432H144.165V146.432H145.165ZM157.338 146.432H158.338V145.432H157.338V146.432ZM155.719 156.688L156.58 157.196L156.581 157.194L155.719 156.688ZM151.259 160.92L151.72 161.808L151.723 161.806L151.259 160.92ZM137.565 160.594L137.059 161.456L137.062 161.458L137.565 160.594ZM132.736 155.438L131.846 155.894L131.848 155.898L132.736 155.438ZM132.04 141.176L131.103 140.827L131.102 140.83L132.04 141.176ZM134.938 136.46L135.658 137.154L135.658 137.154L134.938 136.46ZM139.27 133.52L138.892 132.594L138.892 132.594L139.27 133.52ZM149.227 133.236L148.905 134.183L148.911 134.184L149.227 133.236ZM153.006 135.253L152.384 136.036L152.388 136.039L153.006 135.253ZM155.719 138.364L154.855 138.867L154.856 138.87L155.719 138.364ZM157.068 142.312V143.312H158.216L158.059 142.176L157.068 142.312ZM150.818 142.312L151.779 142.036C151.555 141.256 151.233 140.546 150.808 139.919L149.98 140.48L149.153 141.042C149.446 141.475 149.684 141.987 149.857 142.589L150.818 142.312ZM149.98 140.48L150.812 139.925C150.386 139.286 149.86 138.742 149.238 138.301L148.659 139.116L148.081 139.932C148.5 140.23 148.855 140.595 149.148 141.035L149.98 140.48ZM148.659 139.116L149.254 138.313C148.642 137.86 147.949 137.521 147.185 137.292L146.898 138.25L146.61 139.208C147.172 139.376 147.653 139.616 148.064 139.92L148.659 139.116ZM146.898 138.25L147.189 137.293C146.427 137.061 145.603 136.952 144.724 136.952V137.952V138.952C145.437 138.952 146.062 139.041 146.607 139.207L146.898 138.25ZM144.724 137.952V136.952C143.064 136.952 141.562 137.367 140.256 138.223L140.804 139.06L141.352 139.896C142.3 139.275 143.412 138.952 144.724 138.952V137.952ZM140.804 139.06L140.253 138.225C138.952 139.085 137.966 140.32 137.276 141.879L138.19 142.284L139.105 142.689C139.664 141.426 140.421 140.512 141.355 139.894L140.804 139.06ZM138.19 142.284L137.277 141.877C136.58 143.441 136.253 145.302 136.253 147.426H137.253H138.253C138.253 145.497 138.551 143.931 139.104 142.691L138.19 142.284ZM137.253 147.426H136.253C136.253 149.549 136.575 151.416 137.259 152.994L138.176 152.597L139.094 152.199C138.547 150.936 138.253 149.356 138.253 147.426H137.253ZM138.176 152.597L137.259 152.994C137.94 154.566 138.926 155.813 140.237 156.683L140.79 155.849L141.343 155.016C140.399 154.39 139.644 153.468 139.094 152.199L138.176 152.597ZM140.79 155.849L140.242 156.686C141.553 157.545 143.08 157.957 144.781 157.957V156.957V155.957C143.414 155.957 142.28 155.631 141.338 155.013L140.79 155.849ZM144.781 156.957V157.957C146.289 157.957 147.638 157.691 148.794 157.113L148.347 156.219L147.899 155.324C147.085 155.731 146.058 155.957 144.781 155.957V156.957ZM148.347 156.219L148.797 157.111C149.955 156.527 150.863 155.689 151.487 154.599L150.619 154.102L149.752 153.605C149.334 154.333 148.727 154.906 147.896 155.326L148.347 156.219ZM150.619 154.102L151.483 154.606C152.117 153.519 152.415 152.264 152.415 150.878H151.415H150.415C150.415 151.973 150.182 152.868 149.756 153.598L150.619 154.102ZM151.415 150.878L151.269 151.867L152.519 152.052L152.665 151.062L152.811 150.073L151.561 149.889L151.415 150.878ZM152.665 151.062V150.062H145.165V151.062V152.062H152.665V151.062ZM145.165 151.062H146.165V146.432H145.165H144.165V151.062H145.165ZM145.165 146.432V147.432H157.338V146.432V145.432H145.165V146.432ZM157.338 146.432H156.338V150.097H157.338H158.338V146.432H157.338ZM157.338 150.097H156.338C156.338 152.511 155.829 154.525 154.857 156.181L155.719 156.688L156.581 157.194C157.767 155.175 158.338 152.796 158.338 150.097H157.338ZM155.719 156.688L154.858 156.179C153.873 157.845 152.524 159.126 150.794 160.035L151.259 160.92L151.723 161.806C153.78 160.726 155.405 159.185 156.58 157.196L155.719 156.688ZM151.259 160.92L150.797 160.033C149.065 160.934 147.059 161.398 144.753 161.398V162.398V163.398C147.333 163.398 149.664 162.877 151.72 161.808L151.259 160.92ZM144.753 162.398V161.398C142.177 161.398 139.96 160.831 138.069 159.73L137.565 160.594L137.062 161.458C139.3 162.761 141.874 163.398 144.753 163.398V162.398ZM137.565 160.594L138.072 159.731C136.177 158.619 134.696 157.043 133.623 154.977L132.736 155.438L131.848 155.898C133.086 158.282 134.824 160.144 137.059 161.456L137.565 160.594ZM132.736 155.438L133.626 154.981C132.567 152.916 132.017 150.427 132.017 147.483H131.017H130.017C130.017 150.675 130.613 153.49 131.846 155.894L132.736 155.438ZM131.017 147.483H132.017C132.017 145.22 132.344 143.239 132.978 141.523L132.04 141.176L131.102 140.83C130.372 142.807 130.017 145.03 130.017 147.483H131.017ZM132.04 141.176L132.977 141.525C133.625 139.784 134.522 138.333 135.658 137.154L134.938 136.46L134.217 135.766C132.872 137.163 131.837 138.856 131.103 140.827L132.04 141.176ZM134.938 136.46L135.658 137.154C136.802 135.966 138.13 135.065 139.648 134.446L139.27 133.52L138.892 132.594C137.115 133.319 135.554 134.379 134.217 135.766L134.938 136.46ZM139.27 133.52L139.648 134.446C141.166 133.826 142.822 133.511 144.625 133.511V132.511V131.511C142.584 131.511 140.669 131.869 138.892 132.594L139.27 133.52ZM144.625 132.511V133.511C146.174 133.511 147.598 133.738 148.905 134.183L149.227 133.236L149.549 132.289C148.015 131.768 146.372 131.511 144.625 131.511V132.511ZM149.227 133.236L148.911 134.184C150.228 134.624 151.383 135.242 152.384 136.036L153.006 135.253L153.627 134.469C152.431 133.521 151.067 132.795 149.544 132.287L149.227 133.236ZM153.006 135.253L152.388 136.039C153.398 136.833 154.218 137.775 154.855 138.867L155.719 138.364L156.583 137.86C155.818 136.547 154.83 135.415 153.624 134.467L153.006 135.253ZM155.719 138.364L154.856 138.87C155.487 139.944 155.896 141.134 156.078 142.449L157.068 142.312L158.059 142.176C157.843 140.612 157.352 139.17 156.581 137.857L155.719 138.364ZM157.068 142.312V141.312H150.818V142.312V143.312H157.068V142.312ZM164.344 161.688L163.932 162.599L163.939 162.602L164.344 161.688ZM161.759 159.514L160.92 160.057L160.926 160.067L161.759 159.514ZM161.489 152.852L160.61 152.377L160.61 152.377L161.489 152.852ZM163.308 150.864L162.76 150.027L162.76 150.027L163.308 150.864ZM165.921 149.727L165.67 148.759L165.668 148.76L165.921 149.727ZM169.018 149.188L169.114 150.183L169.122 150.182L169.018 149.188ZM172.086 148.818L172.231 149.808L172.243 149.806L172.086 148.818ZM173.776 148.278L173.216 147.45L173.216 147.45L173.776 148.278ZM173.45 145.054L172.788 145.804L172.795 145.81L173.45 145.054ZM168.464 145.04L169.056 145.845L169.064 145.84L168.464 145.04ZM167.185 146.83L167.104 147.826L167.919 147.892L168.146 147.108L167.185 146.83ZM161.589 146.375L160.611 146.165L160.372 147.279L161.508 147.372L161.589 146.375ZM163.265 142.938L164.022 143.591L164.025 143.587L163.265 142.938ZM166.489 140.693L166.857 141.623L166.861 141.622L166.489 140.693ZM174.572 140.324L174.323 141.293L174.325 141.293L174.572 140.324ZM177.54 141.645L176.971 142.467L176.975 142.47L177.54 141.645ZM179.6 143.946L178.719 144.418L178.721 144.422L179.6 143.946ZM180.353 162V163H181.353V162H180.353ZM174.614 162H173.614V163H174.614V162ZM174.614 158.974H175.614V157.974H174.614V158.974ZM174.444 158.974V157.974H173.833L173.554 158.517L174.444 158.974ZM173.038 160.778L173.694 161.533L173.701 161.526L173.038 160.778ZM170.921 161.986L171.247 162.931L171.257 162.928L170.921 161.986ZM172.157 157.71L172.614 158.6L172.624 158.595L172.157 157.71ZM173.762 156.261L172.92 155.722L172.92 155.722L173.762 156.261ZM174.344 151.886H175.344V150.044L173.799 151.048L174.344 151.886ZM173.563 152.227L173.845 153.187L173.854 153.184L173.863 153.181L173.563 152.227ZM172.469 152.497L172.652 153.48L172.663 153.478L172.674 153.476L172.469 152.497ZM171.248 152.71L171.386 153.701L171.397 153.699L171.409 153.697L171.248 152.71ZM170.14 152.866L169.998 151.877L169.995 151.877L170.14 152.866ZM168.279 153.364L168.673 154.283L168.673 154.283L168.279 153.364ZM167.043 154.287L167.834 154.9L167.841 154.89L167.043 154.287ZM167.498 157.597L166.908 158.404L166.915 158.409L166.923 158.415L167.498 157.597ZM168.066 162.412V161.412C166.79 161.412 165.692 161.191 164.75 160.773L164.344 161.688L163.939 162.602C165.175 163.15 166.558 163.412 168.066 163.412V162.412ZM164.344 161.688L164.756 160.776C163.831 160.358 163.119 159.754 162.593 158.961L161.759 159.514L160.926 160.067C161.669 161.187 162.68 162.032 163.932 162.599L164.344 161.688ZM161.759 159.514L162.599 158.971C162.102 158.203 161.822 157.201 161.822 155.906H160.822H159.822C159.822 157.49 160.166 158.893 160.92 160.057L161.759 159.514ZM160.822 155.906H161.822C161.822 154.813 162.023 153.969 162.369 153.328L161.489 152.852L160.61 152.377C160.066 153.384 159.822 154.576 159.822 155.906H160.822ZM161.489 152.852L162.369 153.328C162.737 152.647 163.23 152.109 163.855 151.7L163.308 150.864L162.76 150.027C161.851 150.622 161.132 151.41 160.61 152.377L161.489 152.852ZM163.308 150.864L163.855 151.7C164.523 151.263 165.293 150.926 166.175 150.695L165.921 149.727L165.668 148.76C164.598 149.04 163.626 149.46 162.76 150.027L163.308 150.864ZM165.921 149.727L166.172 150.695C167.103 150.454 168.083 150.282 169.114 150.183L169.018 149.188L168.922 148.192C167.793 148.301 166.709 148.49 165.67 148.759L165.921 149.727ZM169.018 149.188L169.122 150.182C170.397 150.049 171.435 149.924 172.231 149.808L172.086 148.818L171.941 147.829C171.184 147.94 170.176 148.061 168.914 148.193L169.018 149.188ZM172.086 148.818L172.243 149.806C173.06 149.676 173.801 149.469 174.336 149.107L173.776 148.278L173.216 147.45C173.051 147.561 172.665 147.714 171.929 147.831L172.086 148.818ZM173.776 148.278L174.336 149.107C174.992 148.664 175.302 147.985 175.302 147.227H174.302H173.302C173.302 147.332 173.282 147.378 173.276 147.391C173.271 147.4 173.261 147.42 173.216 147.45L173.776 148.278ZM174.302 147.227H175.302V147.142H174.302H173.302V147.227H174.302ZM174.302 147.142H175.302C175.302 146.015 174.935 145.018 174.105 144.298L173.45 145.054L172.795 145.81C173.1 146.075 173.302 146.47 173.302 147.142H174.302ZM173.45 145.054L174.111 144.304C173.309 143.598 172.245 143.315 171.063 143.315V144.315V145.315C171.946 145.315 172.472 145.526 172.788 145.804L173.45 145.054ZM171.063 144.315V143.315C169.833 143.315 168.733 143.588 167.864 144.24L168.464 145.04L169.064 145.84C169.483 145.526 170.115 145.315 171.063 145.315V144.315ZM168.464 145.04L167.871 144.234C167.063 144.829 166.499 145.606 166.225 146.551L167.185 146.83L168.146 147.108C168.289 146.614 168.577 146.198 169.056 145.845L168.464 145.04ZM167.185 146.83L167.266 145.833L161.67 145.378L161.589 146.375L161.508 147.372L167.104 147.826L167.185 146.83ZM161.589 146.375L162.567 146.585C162.818 145.412 163.305 144.422 164.022 143.591L163.265 142.938L162.508 142.284C161.558 143.385 160.928 144.686 160.611 146.165L161.589 146.375ZM163.265 142.938L164.025 143.587C164.742 142.748 165.677 142.09 166.857 141.623L166.489 140.693L166.121 139.763C164.669 140.338 163.455 141.176 162.505 142.288L163.265 142.938ZM166.489 140.693L166.861 141.622C168.045 141.148 169.449 140.898 171.092 140.898V139.898V138.898C169.249 138.898 167.585 139.178 166.118 139.765L166.489 140.693ZM171.092 139.898V140.898C172.225 140.898 173.301 141.03 174.323 141.293L174.572 140.324L174.82 139.355C173.626 139.049 172.383 138.898 171.092 138.898V139.898ZM174.572 140.324L174.325 141.293C175.339 141.551 176.217 141.945 176.971 142.467L177.54 141.645L178.11 140.823C177.141 140.152 176.04 139.665 174.818 139.355L174.572 140.324ZM177.54 141.645L176.975 142.47C177.713 142.975 178.292 143.621 178.719 144.418L179.6 143.946L180.482 143.474C179.905 142.396 179.11 141.508 178.105 140.82L177.54 141.645ZM179.6 143.946L178.721 144.422C179.127 145.174 179.353 146.115 179.353 147.284H180.353H181.353C181.353 145.858 181.077 144.574 180.48 143.47L179.6 143.946ZM180.353 147.284H179.353V162H180.353H181.353V147.284H180.353ZM180.353 162V161H174.614V162V163H180.353V162ZM174.614 162H175.614V158.974H174.614H173.614V162H174.614ZM174.614 158.974V157.974H174.444V158.974V159.974H174.614V158.974ZM174.444 158.974L173.554 158.517C173.262 159.086 172.871 159.59 172.374 160.03L173.038 160.778L173.701 161.526C174.379 160.925 174.925 160.226 175.333 159.432L174.444 158.974ZM173.038 160.778L172.381 160.024C171.899 160.444 171.306 160.787 170.586 161.044L170.921 161.986L171.257 162.928C172.184 162.597 173.002 162.136 173.694 161.532L173.038 160.778ZM170.921 161.986L170.595 161.04C169.898 161.281 169.06 161.412 168.066 161.412V162.412V163.412C169.231 163.412 170.297 163.259 171.247 162.931L170.921 161.986ZM169.799 158.236V159.236C170.822 159.236 171.77 159.034 172.614 158.6L172.157 157.71L171.7 156.821C171.181 157.088 170.556 157.236 169.799 157.236V158.236ZM172.157 157.71L172.624 158.595C173.447 158.16 174.116 157.563 174.604 156.801L173.762 156.261L172.92 155.722C172.632 156.172 172.23 156.541 171.69 156.826L172.157 157.71ZM173.762 156.261L174.604 156.801C175.102 156.023 175.344 155.147 175.344 154.202H174.344H173.344C173.344 154.791 173.198 155.288 172.92 155.722L173.762 156.261ZM174.344 154.202H175.344V151.886H174.344H173.344V154.202H174.344ZM174.344 151.886L173.799 151.048C173.715 151.103 173.549 151.183 173.263 151.273L173.563 152.227L173.863 153.181C174.24 153.063 174.595 152.916 174.889 152.725L174.344 151.886ZM173.563 152.227L173.281 151.268C172.99 151.354 172.652 151.437 172.265 151.518L172.469 152.497L172.674 153.476C173.102 153.387 173.493 153.29 173.845 153.187L173.563 152.227ZM172.469 152.497L172.287 151.514C171.887 151.588 171.487 151.658 171.087 151.723L171.248 152.71L171.409 153.697C171.823 153.63 172.238 153.557 172.652 153.48L172.469 152.497ZM171.248 152.71L171.11 151.72C170.702 151.777 170.331 151.829 169.998 151.877L170.14 152.866L170.281 153.856C170.611 153.809 170.98 153.757 171.386 153.701L171.248 152.71ZM170.14 152.866L169.995 151.877C169.219 151.991 168.512 152.176 167.885 152.444L168.279 153.364L168.673 154.283C169.107 154.097 169.641 153.95 170.285 153.856L170.14 152.866ZM168.279 153.364L167.885 152.444C167.225 152.727 166.662 153.133 166.246 153.684L167.043 154.287L167.841 154.89C168.012 154.664 168.273 154.454 168.673 154.283L168.279 153.364ZM167.043 154.287L166.253 153.674C165.799 154.259 165.603 154.96 165.603 155.707H166.603H167.603C167.603 155.318 167.7 155.072 167.834 154.9L167.043 154.287ZM166.603 155.707H165.603C165.603 156.808 166.021 157.757 166.908 158.404L167.498 157.597L168.088 156.789C167.781 156.565 167.603 156.255 167.603 155.707H166.603ZM167.498 157.597L166.923 158.415C167.735 158.986 168.717 159.236 169.799 159.236V158.236V157.236C169.024 157.236 168.472 157.059 168.073 156.779L167.498 157.597ZM185.048 162H184.048V163H185.048V162ZM185.048 140.182V139.182H184.048V140.182H185.048ZM190.815 140.182H191.815V139.182H190.815V140.182ZM190.815 144.031H189.815V145.031H190.815V144.031ZM191.07 144.031V145.031H191.776L192.013 144.366L191.07 144.031ZM193.343 141.006L192.772 140.185L192.772 140.185L193.343 141.006ZM200.971 141.02L200.391 141.835L200.396 141.838L200.971 141.02ZM203.073 144.031L202.109 144.297L202.312 145.031H203.073V144.031ZM203.3 144.031V145.031H204.006L204.242 144.367L203.3 144.031ZM205.715 141.034L206.256 141.875L206.257 141.874L205.715 141.034ZM214.835 141.844L214.12 142.543L214.125 142.548L214.835 141.844ZM216.752 162V163H217.752V162H216.752ZM210.715 162H209.715V163H210.715V162ZM209.749 145.793L209.064 146.521L209.064 146.521L209.749 145.793ZM204.763 145.935L205.51 146.6L205.515 146.595L204.763 145.935ZM203.84 162V163H204.84V162H203.84ZM197.974 162H196.974V163H197.974V162ZM197.05 145.835L196.327 146.526L196.333 146.532L197.05 145.835ZM192.832 145.395L193.362 146.243L193.366 146.24L192.832 145.395ZM191.567 146.801L192.453 147.265L192.456 147.259L191.567 146.801ZM191.099 162V163H192.099V162H191.099ZM185.048 162H186.048V140.182H185.048H184.048V162H185.048ZM185.048 140.182V141.182H190.815V140.182V139.182H185.048V140.182ZM190.815 140.182H189.815V144.031H190.815H191.815V140.182H190.815ZM190.815 144.031V145.031H191.07V144.031V143.031H190.815V144.031ZM191.07 144.031L192.013 144.366C192.401 143.274 193.034 142.44 193.915 141.826L193.343 141.006L192.772 140.185C191.531 141.049 190.649 142.232 190.128 143.696L191.07 144.031ZM193.343 141.006L193.915 141.826C194.784 141.221 195.847 140.898 197.15 140.898V139.898V138.898C195.498 138.898 194.023 139.313 192.772 140.185L193.343 141.006ZM197.15 139.898V140.898C198.473 140.898 199.535 141.225 200.391 141.835L200.971 141.02L201.551 140.205C200.304 139.318 198.82 138.898 197.15 138.898V139.898ZM200.971 141.02L200.396 141.838C201.252 142.44 201.819 143.246 202.109 144.297L203.073 144.031L204.037 143.765C203.627 142.279 202.792 141.077 201.546 140.202L200.971 141.02ZM203.073 144.031V145.031H203.3V144.031V143.031H203.073V144.031ZM203.3 144.031L204.242 144.367C204.61 143.335 205.268 142.51 206.256 141.875L205.715 141.034L205.175 140.193C203.833 141.055 202.881 142.228 202.358 143.696L203.3 144.031ZM205.715 141.034L206.257 141.874C207.247 141.236 208.44 140.898 209.877 140.898V139.898V138.898C208.113 138.898 206.531 139.317 205.173 140.194L205.715 141.034ZM209.877 139.898V140.898C211.68 140.898 213.063 141.462 214.12 142.543L214.835 141.844L215.549 141.145C214.069 139.631 212.146 138.898 209.877 138.898V139.898ZM214.835 141.844L214.125 142.548C215.166 143.597 215.752 145.14 215.752 147.327H216.752H217.752C217.752 144.779 217.06 142.666 215.544 141.139L214.835 141.844ZM216.752 147.327H215.752V162H216.752H217.752V147.327H216.752ZM216.752 162V161H210.715V162V163H216.752V162ZM210.715 162H211.715V148.52H210.715H209.715V162H210.715ZM210.715 148.52H211.715C211.715 147.138 211.345 145.921 210.435 145.064L209.749 145.793L209.064 146.521C209.441 146.876 209.715 147.478 209.715 148.52H210.715ZM209.749 145.793L210.435 145.064C209.587 144.267 208.53 143.884 207.335 143.884V144.884V145.884C208.071 145.884 208.623 146.106 209.064 146.521L209.749 145.793ZM207.335 144.884V143.884C206.005 143.884 204.852 144.319 204.012 145.275L204.763 145.935L205.515 146.595C205.906 146.149 206.467 145.884 207.335 145.884V144.884ZM204.763 145.935L204.017 145.27C203.203 146.183 202.84 147.353 202.84 148.676H203.84H204.84C204.84 147.727 205.093 147.069 205.51 146.6L204.763 145.935ZM203.84 148.676H202.84V162H203.84H204.84V148.676H203.84ZM203.84 162V161H197.974V162V163H203.84V162ZM197.974 162H198.974V148.392H197.974H196.974V162H197.974ZM197.974 148.392H198.974C198.974 147.12 198.602 145.998 197.768 145.139L197.05 145.835L196.333 146.532C196.73 146.941 196.974 147.524 196.974 148.392H197.974ZM197.05 145.835L197.774 145.144C196.953 144.285 195.877 143.884 194.65 143.884V144.884V145.884C195.411 145.884 195.936 146.116 196.327 146.526L197.05 145.835ZM194.65 144.884V143.884C193.799 143.884 193.006 144.102 192.298 144.549L192.832 145.395L193.366 146.24C193.737 146.006 194.156 145.884 194.65 145.884V144.884ZM192.832 145.395L192.302 144.547C191.605 144.982 191.066 145.592 190.679 146.343L191.567 146.801L192.456 147.259C192.694 146.798 192.997 146.471 193.362 146.243L192.832 145.395ZM191.567 146.801L190.682 146.337C190.281 147.102 190.099 147.968 190.099 148.903H191.099H192.099C192.099 148.229 192.229 147.693 192.453 147.265L191.567 146.801ZM191.099 148.903H190.099V162H191.099H192.099V148.903H191.099ZM191.099 162V161H185.048V162V163H191.099V162ZM221.532 162H220.532V163H221.532V162ZM221.532 140.182V139.182H220.532V140.182H221.532ZM227.583 140.182H228.583V139.182H227.583V140.182ZM227.583 162V163H228.583V162H227.583ZM222.256 136.474L221.566 137.198L221.571 137.203L221.577 137.208L222.256 136.474ZM222.256 132.156L222.941 132.885L222.942 132.884L222.256 132.156ZM226.873 132.156L226.182 132.879L226.188 132.885L226.193 132.89L226.873 132.156ZM226.873 136.474L227.558 137.203L227.558 137.203L226.873 136.474ZM221.532 162H222.532V140.182H221.532H220.532V162H221.532ZM221.532 140.182V141.182H227.583V140.182V139.182H221.532V140.182ZM227.583 140.182H226.583V162H227.583H228.583V140.182H227.583ZM227.583 162V161H221.532V162V163H227.583V162ZM224.572 137.369V136.369C223.917 136.369 223.39 136.162 222.936 135.741L222.256 136.474L221.577 137.208C222.411 137.981 223.427 138.369 224.572 138.369V137.369ZM222.256 136.474L222.947 135.751C222.501 135.325 222.305 134.858 222.305 134.301H221.305H220.305C220.305 135.429 220.743 136.412 221.566 137.198L222.256 136.474ZM221.305 134.301H222.305C222.305 133.757 222.498 133.302 222.941 132.885L222.256 132.156L221.571 131.428C220.746 132.204 220.305 133.178 220.305 134.301H221.305ZM222.256 132.156L222.942 132.884C223.397 132.456 223.922 132.247 224.572 132.247V131.247V130.247C223.422 130.247 222.404 130.644 221.571 131.428L222.256 132.156ZM224.572 131.247V132.247C225.221 132.247 225.739 132.456 226.182 132.879L226.873 132.156L227.564 131.433C226.738 130.644 225.721 130.247 224.572 130.247V131.247ZM226.873 132.156L226.193 132.89C226.645 133.309 226.839 133.763 226.839 134.301H227.839H228.839C228.839 133.173 228.388 132.197 227.552 131.423L226.873 132.156ZM227.839 134.301H226.839C226.839 134.853 226.642 135.319 226.188 135.746L226.873 136.474L227.558 137.203C228.392 136.418 228.839 135.435 228.839 134.301H227.839ZM226.873 136.474L226.188 135.746C225.745 136.162 225.226 136.369 224.572 136.369V137.369V138.369C225.717 138.369 226.731 137.98 227.558 137.203L226.873 136.474ZM238.482 149.386L237.482 149.376V149.386H238.482ZM238.482 162V163H239.482V162H238.482ZM232.43 162H231.43V163H232.43V162ZM232.43 140.182V139.182H231.43V140.182H232.43ZM238.197 140.182H239.197V139.182H238.197V140.182ZM238.197 144.031H237.197V145.031H238.197V144.031ZM238.453 144.031V145.031H239.143L239.388 144.387L238.453 144.031ZM240.882 141.02L241.427 141.858L241.432 141.855L240.882 141.02ZM248.979 140.892L249.486 140.03L248.979 140.892ZM251.607 143.733L250.715 144.186L250.716 144.188L251.607 143.733ZM252.544 162V163H253.544V162H252.544ZM246.493 162H245.493V163H246.493V162ZM246.493 149.188L245.493 149.18V149.188H246.493ZM245.47 146.062L244.731 146.737L244.736 146.741L245.47 146.062ZM240.456 145.452L239.967 144.579L239.961 144.583L240.456 145.452ZM239.007 146.986L238.12 146.524L238.118 146.528L239.007 146.986ZM238.482 149.386H237.482V162H238.482H239.482V149.386H238.482ZM238.482 162V161H232.43V162V163H238.482V162ZM232.43 162H233.43V140.182H232.43H231.43V162H232.43ZM232.43 140.182V141.182H238.197V140.182V139.182H232.43V140.182ZM238.197 140.182H237.197V144.031H238.197H239.197V140.182H238.197ZM238.197 144.031V145.031H238.453V144.031V143.031H238.197V144.031ZM238.453 144.031L239.388 144.387C239.795 143.316 240.469 142.481 241.427 141.858L240.882 141.02L240.337 140.181C239.023 141.036 238.077 142.209 237.519 143.676L238.453 144.031ZM240.882 141.02L241.432 141.855C242.376 141.234 243.554 140.898 245.016 140.898V139.898V138.898C243.239 138.898 241.661 139.31 240.332 140.185L240.882 141.02ZM245.016 139.898V140.898C246.381 140.898 247.521 141.195 248.472 141.754L248.979 140.892L249.486 140.03C248.182 139.263 246.68 138.898 245.016 138.898V139.898ZM248.979 140.892L248.472 141.754C249.424 142.314 250.171 143.115 250.715 144.186L251.607 143.733L252.498 143.28C251.792 141.889 250.787 140.795 249.486 140.03L248.979 140.892ZM251.607 143.733L250.716 144.188C251.254 145.24 251.544 146.535 251.544 148.108H252.544H253.544C253.544 146.291 253.209 144.669 252.497 143.277L251.607 143.733ZM252.544 148.108H251.544V162H252.544H253.544V148.108H252.544ZM252.544 162V161H246.493V162V163H252.544V162ZM246.493 162H247.493V149.188H246.493H245.493V162H246.493ZM246.493 149.188L247.493 149.195C247.504 147.687 247.117 146.371 246.205 145.384L245.47 146.062L244.736 146.741C245.206 147.251 245.501 148.018 245.493 149.18L246.493 149.188ZM245.47 146.062L246.209 145.388C245.293 144.385 244.052 143.926 242.615 143.926V144.926V145.926C243.602 145.926 244.264 146.225 244.731 146.737L245.47 146.062ZM242.615 144.926V143.926C241.653 143.926 240.761 144.134 239.967 144.579L240.456 145.452L240.945 146.324C241.401 146.068 241.948 145.926 242.615 145.926V144.926ZM240.456 145.452L239.961 144.583C239.167 145.035 238.553 145.693 238.12 146.524L239.007 146.986L239.894 147.448C240.162 146.934 240.514 146.569 240.951 146.321L240.456 145.452ZM239.007 146.986L238.118 146.528C237.69 147.361 237.492 148.322 237.482 149.376L238.482 149.386L239.481 149.396C239.49 148.575 239.643 147.937 239.896 147.443L239.007 146.986ZM262.1 169.827L262.46 168.894L262.456 168.892L262.1 169.827ZM258.776 167.653L258.032 168.321L258.032 168.321L258.776 167.653ZM257.171 164.557L257.038 163.566L255.966 163.71L256.193 164.767L257.171 164.557ZM262.768 163.804L263.699 163.44L263.413 162.708L262.634 162.813L262.768 163.804ZM263.577 165.026L264.293 164.327L264.293 164.327L263.577 165.026ZM265.04 165.935L265.399 165.001L265.392 164.998L265.04 165.935ZM270.538 165.324L269.945 164.519L269.935 164.526L270.538 165.324ZM271.83 158.136H272.83V157.136H271.83V158.136ZM271.575 158.136V157.136H270.921L270.658 157.736L271.575 158.136ZM270.381 159.855L271.095 160.556L271.095 160.556L270.381 159.855ZM260.879 160.551L260.38 161.418L260.388 161.422L260.879 160.551ZM257.683 157.043L256.787 157.488L256.79 157.494L257.683 157.043ZM257.711 144.855L256.811 144.418L256.811 144.418L257.711 144.855ZM260.921 141.134L260.399 140.281L260.396 140.282L260.921 141.134ZM268.407 140.523L267.956 141.415L267.964 141.419L268.407 140.523ZM270.396 142.057L269.621 142.689L269.626 142.695L269.631 142.702L270.396 142.057ZM271.575 143.847L270.669 144.27L270.938 144.847H271.575V143.847ZM271.802 143.847V144.847H272.802V143.847H271.802ZM271.802 140.182V139.182H270.802V140.182H271.802ZM277.81 140.182H278.81V139.182H277.81V140.182ZM276.447 166.872L275.638 166.284L275.638 166.284L276.447 166.872ZM272.668 169.685L272.306 168.752L272.3 168.755L272.668 169.685ZM269.742 156.418L270.326 157.23L270.328 157.228L269.742 156.418ZM271.305 154.315L270.377 153.942L270.375 153.947L271.305 154.315ZM271.319 147.696L270.384 148.051L270.385 148.054L271.319 147.696ZM264.756 145.523L265.37 146.312L265.377 146.307L264.756 145.523ZM263.208 147.739L264.146 148.086L264.146 148.086L263.208 147.739ZM263.208 154.287L262.274 154.643L262.278 154.655L263.208 154.287ZM264.756 156.403L264.158 157.205L264.165 157.209L264.171 157.214L264.756 156.403ZM267.143 170.636V169.636C265.27 169.636 263.717 169.378 262.46 168.894L262.1 169.827L261.741 170.76C263.286 171.355 265.095 171.636 267.143 171.636V170.636ZM262.1 169.827L262.456 168.892C261.182 168.407 260.218 167.764 259.521 166.986L258.776 167.653L258.032 168.321C258.982 169.38 260.234 170.186 261.744 170.761L262.1 169.827ZM258.776 167.653L259.521 166.986C258.807 166.19 258.357 165.313 258.149 164.347L257.171 164.557L256.193 164.767C256.478 166.092 257.098 167.28 258.032 168.321L258.776 167.653ZM257.171 164.557L257.304 165.548L262.901 164.795L262.768 163.804L262.634 162.813L257.038 163.566L257.171 164.557ZM262.768 163.804L261.837 164.168C262.062 164.744 262.411 165.262 262.861 165.724L263.577 165.026L264.293 164.327C264.005 164.032 263.815 163.735 263.699 163.44L262.768 163.804ZM263.577 165.026L262.861 165.724C263.354 166.229 263.976 166.603 264.689 166.871L265.04 165.935L265.392 164.998C264.893 164.811 264.54 164.58 264.293 164.327L263.577 165.026ZM265.04 165.935L264.682 166.868C265.443 167.161 266.32 167.29 267.285 167.29V166.29V165.29C266.488 165.29 265.869 165.182 265.399 165.001L265.04 165.935ZM267.285 166.29V167.29C268.767 167.29 270.078 166.925 271.14 166.122L270.538 165.324L269.935 164.526C269.293 165.011 268.435 165.29 267.285 165.29V166.29ZM270.538 165.324L271.131 166.129C272.341 165.238 272.83 163.807 272.83 162.128H271.83H270.83C270.83 163.442 270.458 164.141 269.945 164.519L270.538 165.324ZM271.83 162.128H272.83V158.136H271.83H270.83V162.128H271.83ZM271.83 158.136V157.136H271.575V158.136V159.136H271.83V158.136ZM271.575 158.136L270.658 157.736C270.449 158.215 270.125 158.689 269.668 159.154L270.381 159.855L271.095 160.556C271.698 159.942 272.17 159.27 272.491 158.537L271.575 158.136ZM270.381 159.855L269.668 159.154C269.249 159.581 268.688 159.951 267.957 160.251L268.336 161.176L268.715 162.102C269.65 161.719 270.453 161.209 271.095 160.556L270.381 159.855ZM268.336 161.176L267.957 160.251C267.273 160.531 266.414 160.688 265.353 160.688V161.688V162.688C266.603 162.688 267.732 162.504 268.715 162.102L268.336 161.176ZM265.353 161.688V160.688C263.876 160.688 262.555 160.348 261.369 159.68L260.879 160.551L260.388 161.422C261.891 162.27 263.554 162.688 265.353 162.688V161.688ZM260.879 160.551L261.377 159.684C260.234 159.028 259.295 158.015 258.575 156.591L257.683 157.043L256.79 157.494C257.661 159.214 258.853 160.541 260.38 161.418L260.879 160.551ZM257.683 157.043L258.578 156.598C257.881 155.196 257.504 153.362 257.504 151.048H256.504H255.504C255.504 153.564 255.912 155.727 256.787 157.488L257.683 157.043ZM256.504 151.048H257.504C257.504 148.679 257.89 146.775 258.61 145.292L257.711 144.855L256.811 144.418C255.922 146.25 255.504 148.475 255.504 151.048H256.504ZM257.711 144.855L258.61 145.292C259.347 143.775 260.299 142.692 261.446 141.985L260.921 141.134L260.396 140.282C258.873 141.222 257.685 142.62 256.811 144.418L257.711 144.855ZM260.921 141.134L261.444 141.986C262.629 141.26 263.92 140.898 265.339 140.898V139.898V138.898C263.557 138.898 261.903 139.359 260.399 140.281L260.921 141.134ZM265.339 139.898V140.898C266.452 140.898 267.309 141.088 267.956 141.415L268.407 140.523L268.858 139.63C267.857 139.124 266.669 138.898 265.339 138.898V139.898ZM268.407 140.523L267.964 141.419C268.679 141.773 269.222 142.2 269.621 142.689L270.396 142.057L271.171 141.425C270.565 140.682 269.782 140.087 268.85 139.626L268.407 140.523ZM270.396 142.057L269.631 142.702C270.098 143.255 270.439 143.778 270.669 144.27L271.575 143.847L272.48 143.423C272.161 142.741 271.716 142.071 271.16 141.412L270.396 142.057ZM271.575 143.847V144.847H271.802V143.847V142.847H271.575V143.847ZM271.802 143.847H272.802V140.182H271.802H270.802V143.847H271.802ZM271.802 140.182V141.182H277.81V140.182V139.182H271.802V140.182ZM277.81 140.182H276.81V162.213H277.81H278.81V140.182H277.81ZM277.81 162.213H276.81C276.81 163.901 276.399 165.237 275.638 166.284L276.447 166.872L277.255 167.46C278.312 166.007 278.81 164.237 278.81 162.213H277.81ZM276.447 166.872L275.638 166.284C274.855 167.361 273.759 168.188 272.306 168.752L272.668 169.685L273.03 170.617C274.797 169.931 276.221 168.883 277.255 167.46L276.447 166.872ZM272.668 169.685L272.3 168.755C270.839 169.334 269.126 169.636 267.143 169.636V170.636V171.636C269.326 171.636 271.297 171.304 273.037 170.614L272.668 169.685ZM267.271 157.142V158.142C268.417 158.142 269.454 157.856 270.326 157.23L269.742 156.418L269.159 155.605C268.685 155.946 268.075 156.142 267.271 156.142V157.142ZM269.742 156.418L270.328 157.228C271.188 156.607 271.816 155.74 272.234 154.683L271.305 154.315L270.375 153.947C270.074 154.708 269.66 155.243 269.157 155.607L269.742 156.418ZM271.305 154.315L272.233 154.688C272.661 153.622 272.859 152.391 272.859 151.02H271.859H270.859C270.859 152.206 270.687 153.171 270.377 153.942L271.305 154.315ZM271.859 151.02H272.859C272.859 149.651 272.666 148.416 272.252 147.338L271.319 147.696L270.385 148.054C270.691 148.851 270.859 149.832 270.859 151.02H271.859ZM271.319 147.696L272.254 147.341C271.84 146.252 271.218 145.353 270.363 144.7L269.756 145.494L269.149 146.289C269.658 146.678 270.078 147.247 270.384 148.051L271.319 147.696ZM269.756 145.494L270.363 144.7C269.484 144.028 268.434 143.713 267.271 143.713V144.713V145.713C268.058 145.713 268.665 145.919 269.149 146.289L269.756 145.494ZM267.271 144.713V143.713C266.085 143.713 265.019 144.039 264.136 144.739L264.756 145.523L265.377 146.307C265.857 145.927 266.468 145.713 267.271 145.713V144.713ZM264.756 145.523L264.142 144.733C263.29 145.396 262.674 146.3 262.27 147.392L263.208 147.739L264.146 148.086C264.443 147.283 264.859 146.71 265.37 146.312L264.756 145.523ZM263.208 147.739L262.27 147.392C261.871 148.472 261.683 149.687 261.683 151.02H262.683H263.683C263.683 149.872 263.845 148.899 264.146 148.086L263.208 147.739ZM262.683 151.02H261.683C261.683 152.368 261.87 153.584 262.274 154.643L263.208 154.287L264.142 153.931C263.846 153.153 263.683 152.19 263.683 151.02H262.683ZM263.208 154.287L262.278 154.655C262.695 155.707 263.314 156.575 264.158 157.205L264.756 156.403L265.355 155.602C264.854 155.228 264.441 154.685 264.138 153.919L263.208 154.287ZM264.756 156.403L264.171 157.214C265.053 157.851 266.105 158.142 267.271 158.142V157.142V156.142C266.447 156.142 265.824 155.941 265.342 155.593L264.756 156.403ZM282.739 162H281.739V163H282.739V162ZM282.739 132.909V131.909H281.739V132.909H282.739ZM288.89 132.909H289.89V131.909H288.89V132.909ZM288.89 144.912H287.89V145.912H288.89V144.912ZM301.376 144.912V145.912H302.376V144.912H301.376ZM301.376 132.909V131.909H300.376V132.909H301.376ZM307.512 132.909H308.512V131.909H307.512V132.909ZM307.512 162V163H308.512V162H307.512ZM301.376 162H300.376V163H301.376V162ZM301.376 149.983H302.376V148.983H301.376V149.983ZM288.89 149.983V148.983H287.89V149.983H288.89ZM288.89 162V163H289.89V162H288.89ZM282.739 162H283.739V132.909H282.739H281.739V162H282.739ZM282.739 132.909V133.909H288.89V132.909V131.909H282.739V132.909ZM288.89 132.909H287.89V144.912H288.89H289.89V132.909H288.89ZM288.89 144.912V145.912H301.376V144.912V143.912H288.89V144.912ZM301.376 144.912H302.376V132.909H301.376H300.376V144.912H301.376ZM301.376 132.909V133.909H307.512V132.909V131.909H301.376V132.909ZM307.512 132.909H306.512V162H307.512H308.512V132.909H307.512ZM307.512 162V161H301.376V162V163H307.512V162ZM301.376 162H302.376V149.983H301.376H300.376V162H301.376ZM301.376 149.983V148.983H288.89V149.983V150.983H301.376V149.983ZM288.89 149.983H287.89V162H288.89H289.89V149.983H288.89ZM288.89 162V161H282.739V162V163H288.89V162ZM326.461 152.71H325.461L325.461 152.72L326.461 152.71ZM326.461 140.182V139.182H325.461V140.182H326.461ZM332.512 140.182H333.512V139.182H332.512V140.182ZM332.512 162V163H333.512V162H332.512ZM326.702 162H325.702V163H326.702V162ZM326.702 158.037H327.702V157.037H326.702V158.037ZM326.475 158.037V157.037H325.789L325.542 157.677L326.475 158.037ZM324.018 161.119L323.457 160.291L323.454 160.294L324.018 161.119ZM316.006 161.29L316.52 160.432L316.52 160.432L316.006 161.29ZM313.407 158.463L312.514 158.913L312.517 158.919L313.407 158.463ZM312.469 154.074H311.469L311.469 154.079L312.469 154.074ZM312.469 140.182V139.182H311.469V140.182H312.469ZM318.521 140.182H319.521V139.182H318.521V140.182ZM318.521 152.994H317.521L317.521 153.002L318.521 152.994ZM319.558 156.048L320.297 155.375L320.297 155.375L319.558 156.048ZM324.344 156.673L324.808 157.56L324.818 157.554L324.344 156.673ZM325.879 155.168L325.021 154.653L325.016 154.662L325.879 155.168ZM326.461 152.71H327.461V140.182H326.461H325.461V152.71H326.461ZM326.461 140.182V141.182H332.512V140.182V139.182H326.461V140.182ZM332.512 140.182H331.512V162H332.512H333.512V140.182H332.512ZM332.512 162V161H326.702V162V163H332.512V162ZM326.702 162H327.702V158.037H326.702H325.702V162H326.702ZM326.702 158.037V157.037H326.475V158.037V159.037H326.702V158.037ZM326.475 158.037L325.542 157.677C325.124 158.763 324.436 159.628 323.457 160.292L324.018 161.119L324.579 161.947C325.892 161.057 326.842 159.867 327.408 158.396L326.475 158.037ZM324.018 161.119L323.454 160.294C322.513 160.936 321.332 161.284 319.856 161.284V162.284V163.284C321.656 163.284 323.25 162.855 324.582 161.945L324.018 161.119ZM319.856 162.284V161.284C318.554 161.284 317.453 160.99 316.52 160.432L316.006 161.29L315.493 162.148C316.775 162.915 318.241 163.284 319.856 163.284V162.284ZM316.006 161.29L316.52 160.432C315.583 159.871 314.842 159.073 314.297 158.008L313.407 158.463L312.517 158.919C313.221 160.296 314.214 161.383 315.493 162.148L316.006 161.29ZM313.407 158.463L314.3 158.013C313.769 156.959 313.478 155.656 313.469 154.068L312.469 154.074L311.469 154.079C311.48 155.901 311.814 157.524 312.514 158.913L313.407 158.463ZM312.469 154.074H313.469V140.182H312.469H311.469V154.074H312.469ZM312.469 140.182V141.182H318.521V140.182V139.182H312.469V140.182ZM318.521 140.182H317.521V152.994H318.521H319.521V140.182H318.521ZM318.521 152.994L317.521 153.002C317.531 154.467 317.929 155.746 318.818 156.722L319.558 156.048L320.297 155.375C319.822 154.854 319.529 154.098 319.521 152.987L318.521 152.994ZM319.558 156.048L318.818 156.722C319.716 157.706 320.913 158.17 322.299 158.17V157.17V156.17C321.393 156.17 320.763 155.886 320.297 155.375L319.558 156.048ZM322.299 157.17V158.17C323.186 158.17 324.027 157.967 324.807 157.56L324.344 156.673L323.881 155.787C323.393 156.042 322.87 156.17 322.299 156.17V157.17ZM324.344 156.673L324.818 157.554C325.625 157.12 326.267 156.483 326.741 155.673L325.879 155.168L325.016 154.662C324.714 155.178 324.333 155.544 323.871 155.792L324.344 156.673ZM325.879 155.168L326.736 155.682C327.251 154.824 327.472 153.813 327.461 152.701L326.461 152.71L325.461 152.72C325.469 153.559 325.302 154.185 325.021 154.653L325.879 155.168ZM337.466 162H336.466V163H337.466V162ZM337.466 132.909V131.909H336.466V132.909H337.466ZM343.517 132.909H344.517V131.909H343.517V132.909ZM343.517 143.847H342.517V144.847H343.517V143.847ZM343.702 143.847V144.847H344.347L344.613 144.258L343.702 143.847ZM344.852 142.057L344.083 141.418L344.082 141.419L344.852 142.057ZM346.841 140.523L347.288 141.417L347.292 141.415L346.841 140.523ZM354.312 141.148L353.786 141.998L353.79 142L354.312 141.148ZM357.537 144.884L356.636 145.318L356.637 145.32L357.537 144.884ZM357.565 157.284L356.66 156.86L356.659 156.862L357.565 157.284ZM354.384 161.077L354.922 161.92L354.923 161.919L354.384 161.077ZM346.898 161.773L346.467 162.675L346.471 162.677L346.898 161.773ZM344.895 160.31L344.142 160.967L344.147 160.973L344.895 160.31ZM343.702 158.506L344.613 158.093L344.346 157.506H343.702V158.506ZM343.432 158.506V157.506H342.432V158.506H343.432ZM343.432 162V163H344.432V162H343.432ZM345.491 156.744L344.871 157.528L344.878 157.534L345.491 156.744ZM350.477 156.73L351.098 157.514L351.105 157.509L350.477 156.73ZM352.026 154.457L351.087 154.111L351.086 154.116L352.026 154.457ZM352.04 147.767L352.979 147.423L352.979 147.423L352.04 147.767ZM350.491 145.523L351.112 144.739L351.112 144.739L350.491 145.523ZM345.477 145.494L344.87 144.7L344.865 144.704L345.477 145.494ZM343.929 147.71L342.993 147.358L342.993 147.358L343.929 147.71ZM337.466 162H338.466V132.909H337.466H336.466V162H337.466ZM337.466 132.909V133.909H343.517V132.909V131.909H337.466V132.909ZM343.517 132.909H342.517V143.847H343.517H344.517V132.909H343.517ZM343.517 143.847V144.847H343.702V143.847V142.847H343.517V143.847ZM343.702 143.847L344.613 144.258C344.834 143.768 345.165 143.247 345.622 142.695L344.852 142.057L344.082 141.419C343.535 142.079 343.099 142.751 342.79 143.435L343.702 143.847ZM344.852 142.057L345.621 142.696C346.033 142.201 346.581 141.771 347.288 141.417L346.841 140.523L346.394 139.628C345.472 140.089 344.694 140.682 344.083 141.418L344.852 142.057ZM346.841 140.523L347.292 141.415C347.938 141.088 348.796 140.898 349.909 140.898V139.898V138.898C348.579 138.898 347.391 139.124 346.39 139.63L346.841 140.523ZM349.909 139.898V140.898C351.315 140.898 352.6 141.263 353.786 141.998L354.312 141.148L354.839 140.298C353.335 139.366 351.685 138.898 349.909 138.898V139.898ZM354.312 141.148L353.79 142C354.945 142.708 355.9 143.794 356.636 145.318L357.537 144.884L358.437 144.449C357.564 142.64 356.37 141.235 354.835 140.295L354.312 141.148ZM357.537 144.884L356.637 145.32C357.357 146.802 357.744 148.719 357.744 151.119H358.744H359.744C359.744 148.519 359.327 146.28 358.436 144.447L357.537 144.884ZM358.744 151.119H357.744C357.744 153.45 357.367 155.351 356.66 156.86L357.565 157.284L358.471 157.709C359.335 155.865 359.744 153.656 359.744 151.119H358.744ZM357.565 157.284L356.659 156.862C355.95 158.383 355.006 159.49 353.844 160.235L354.384 161.077L354.923 161.919C356.45 160.94 357.628 159.518 358.472 157.706L357.565 157.284ZM354.384 161.077L353.845 160.234C352.679 160.979 351.371 161.355 349.895 161.355V162.355V163.355C351.733 163.355 353.418 162.879 354.922 161.92L354.384 161.077ZM349.895 162.355V161.355C348.827 161.355 347.982 161.178 347.324 160.868L346.898 161.773L346.471 162.677C347.461 163.144 348.614 163.355 349.895 163.355V162.355ZM346.898 161.773L347.328 160.87C346.617 160.531 346.063 160.119 345.643 159.646L344.895 160.31L344.147 160.973C344.769 161.674 345.55 162.238 346.467 162.675L346.898 161.773ZM344.895 160.31L345.648 159.652C345.18 159.115 344.84 158.595 344.613 158.093L343.702 158.506L342.791 158.918C343.113 159.628 343.568 160.311 344.142 160.967L344.895 160.31ZM343.702 158.506V157.506H343.432V158.506V159.506H343.702V158.506ZM343.432 158.506H342.432V162H343.432H344.432V158.506H343.432ZM343.432 162V161H337.466V162V163H343.432V162ZM343.389 151.091H342.389C342.389 152.478 342.581 153.733 342.992 154.835L343.929 154.486L344.866 154.137C344.557 153.307 344.389 152.299 344.389 151.091H343.389ZM343.929 154.486L342.992 154.835C343.404 155.94 344.021 156.856 344.871 157.528L345.491 156.744L346.112 155.96C345.598 155.553 345.174 154.963 344.866 154.137L343.929 154.486ZM345.491 156.744L344.878 157.534C345.757 158.218 346.81 158.54 347.977 158.54V157.54V156.54C347.194 156.54 346.589 156.331 346.105 155.955L345.491 156.744ZM347.977 157.54V158.54C349.156 158.54 350.216 158.212 351.098 157.514L350.477 156.73L349.857 155.946C349.375 156.328 348.768 156.54 347.977 156.54V157.54ZM350.477 156.73L351.105 157.509C351.952 156.826 352.564 155.906 352.966 154.798L352.026 154.457L351.086 154.116C350.786 154.941 350.366 155.535 349.85 155.951L350.477 156.73ZM352.026 154.457L352.964 154.804C353.372 153.696 353.565 152.453 353.565 151.091H352.565H351.565C351.565 152.267 351.398 153.268 351.087 154.111L352.026 154.457ZM352.565 151.091H353.565C353.565 149.741 353.378 148.512 352.979 147.423L352.04 147.767L351.101 148.111C351.403 148.935 351.565 149.922 351.565 151.091H352.565ZM352.04 147.767L352.979 147.423C352.576 146.323 351.962 145.411 351.112 144.739L350.491 145.523L349.871 146.307C350.385 146.714 350.803 147.298 351.101 148.111L352.04 147.767ZM350.491 145.523L351.112 144.739C350.229 144.039 349.163 143.713 347.977 143.713V144.713V145.713C348.78 145.713 349.391 145.927 349.871 146.307L350.491 145.523ZM347.977 144.713V143.713C346.807 143.713 345.752 144.026 344.87 144.7L345.477 145.494L346.084 146.289C346.567 145.921 347.178 145.713 347.977 145.713V144.713ZM345.477 145.494L344.865 144.704C344.019 145.359 343.405 146.264 342.993 147.358L343.929 147.71L344.865 148.062C345.173 147.244 345.591 146.671 346.09 146.285L345.477 145.494ZM343.929 147.71L342.993 147.358C342.581 148.453 342.389 149.704 342.389 151.091H343.389H344.389C344.389 149.883 344.557 148.88 344.865 148.062L343.929 147.71Z"
            fill="white" mask="url(#path-1-outside-1_244_3)" />
    </g>
    <defs>
        <filter id="filter0_dddddddd_244_3" x="0.0166016" y="0.24707" width="489.728" 
            height="301.39" filterUnits="userSpaceOnUse" color-interpolation-filters="sRGB">
            <feFlood flood-opacity="0" result="BackgroundImageFix" />
            <feColorMatrix in="SourceAlpha" type="matrix"
                values="0 0 0 0 0 0 0 0 0 0 0 0 0 0 0 0 0 0 127 0" result="hardAlpha" />
            <feOffset />
            <feGaussianBlur stdDeviation="65" />
            <feComposite in2="hardAlpha" operator="out" />
            <feColorMatrix type="matrix" values="0 0 0 0 1 0 0 0 0 0.317647 0 0 0 0 0 0 0 0 1 0" />
            <feBlend mode="normal" in2="BackgroundImageFix" result="effect1_dropShadow_244_3" />
            <feColorMatrix in="SourceAlpha" type="matrix"
                values="0 0 0 0 0 0 0 0 0 0 0 0 0 0 0 0 0 0 127 0" result="hardAlpha" />
            <feOffset />
            <feGaussianBlur stdDeviation="44" />
            <feComposite in2="hardAlpha" operator="out" />
            <feColorMatrix type="matrix" values="0 0 0 0 1 0 0 0 0 0.317647 0 0 0 0 0 0 0 0 1 0" />
            <feBlend mode="normal" in2="effect1_dropShadow_244_3" result="effect2_dropShadow_244_3" />
            <feColorMatrix in="SourceAlpha" type="matrix"
                values="0 0 0 0 0 0 0 0 0 0 0 0 0 0 0 0 0 0 127 0" result="hardAlpha" />
            <feOffset />
            <feGaussianBlur stdDeviation="35" />
            <feComposite in2="hardAlpha" operator="out" />
            <feColorMatrix type="matrix" values="0 0 0 0 1 0 0 0 0 0.317647 0 0 0 0 0 0 0 0 1 0" />
            <feBlend mode="normal" in2="effect2_dropShadow_244_3" result="effect3_dropShadow_244_3" />
            <feColorMatrix in="SourceAlpha" type="matrix"
                values="0 0 0 0 0 0 0 0 0 0 0 0 0 0 0 0 0 0 127 0" result="hardAlpha" />
            <feOffset />
            <feGaussianBlur stdDeviation="33" />
            <feComposite in2="hardAlpha" operator="out" />
            <feColorMatrix type="matrix" values="0 0 0 0 1 0 0 0 0 0.317647 0 0 0 0 0 0 0 0 1 0" />
            <feBlend mode="normal" in2="effect3_dropShadow_244_3" result="effect4_dropShadow_244_3" />
            <feColorMatrix in="SourceAlpha" type="matrix"
                values="0 0 0 0 0 0 0 0 0 0 0 0 0 0 0 0 0 0 127 0" result="hardAlpha" />
            <feOffset />
            <feGaussianBlur stdDeviation="18" />
            <feComposite in2="hardAlpha" operator="out" />
            <feColorMatrix type="matrix" values="0 0 0 0 1 0 0 0 0 0.317647 0 0 0 0 0 0 0 0 1 0" />
            <feBlend mode="normal" in2="effect4_dropShadow_244_3" result="effect5_dropShadow_244_3" />
            <feColorMatrix in="SourceAlpha" type="matrix"
                values="0 0 0 0 0 0 0 0 0 0 0 0 0 0 0 0 0 0 127 0" result="hardAlpha" />
            <feOffset />
            <feGaussianBlur stdDeviation="9" />
            <feComposite in2="hardAlpha" operator="out" />
            <feColorMatrix type="matrix"
                values="0 0 0 0 1 0 0 0 0 0.92549 0 0 0 0 0.886275 0 0 0 1 0" />
            <feBlend mode="normal" in2="effect5_dropShadow_244_3" result="effect6_dropShadow_244_3" />
            <feColorMatrix in="SourceAlpha" type="matrix"
                values="0 0 0 0 0 0 0 0 0 0 0 0 0 0 0 0 0 0 127 0" result="hardAlpha" />
            <feOffset />
            <feGaussianBlur stdDeviation="5" />
            <feComposite in2="hardAlpha" operator="out" />
            <feColorMatrix type="matrix"
                values="0 0 0 0 1 0 0 0 0 0.92549 0 0 0 0 0.886275 0 0 0 1 0" />
            <feBlend mode="normal" in2="effect6_dropShadow_244_3" result="effect7_dropShadow_244_3" />
            <feColorMatrix in="SourceAlpha" type="matrix"
                values="0 0 0 0 0 0 0 0 0 0 0 0 0 0 0 0 0 0 127 0" result="hardAlpha" />
            <feOffset />
            <feGaussianBlur stdDeviation="2" />
            <feComposite in2="hardAlpha" operator="out" />
            <feColorMatrix type="matrix"
                values="0 0 0 0 1 0 0 0 0 0.92549 0 0 0 0 0.886275 0 0 0 1 0" />
            <feBlend mode="normal" in2="effect7_dropShadow_244_3" result="effect8_dropShadow_244_3" />
            <feBlend mode="normal" in="SourceGraphic" in2="effect8_dropShadow_244_3" result="shape" />
        </filter>

        <!-- smaller filters -->
        <filter id="filter1_dddddddd_244_2" x="0.0166016" y="0.24707" width="509.728"
            height="321.39" filterUnits="userSpaceOnUse" color-interpolation-filters="sRGB">
            <feFlood flood-opacity="0" result="BackgroundImageFix" />
            <feColorMatrix in="SourceAlpha" type="matrix"
                values="0 0 0 0 0 0 0 0 0 0 0 0 0 0 0 0 0 0 127 0" result="hardAlpha" />
            <feOffset />
            <feGaussianBlur stdDeviation="70" />
            <feComposite in2="hardAlpha" operator="out" />
            <feColorMatrix type="matrix" values="0 0 0 0 1 0 0 0 0 0.317647 0 0 0 0 0 0 0 0 1 0" />
            <feBlend mode="normal" in2="BackgroundImageFix" result="effect1_dropShadow_244_2" />
            <feColorMatrix in="SourceAlpha" type="matrix"
                values="0 0 0 0 0 0 0 0 0 0 0 0 0 0 0 0 0 0 127 0" result="hardAlpha" />
            <feOffset />
            <feGaussianBlur stdDeviation="47" />
            <feComposite in2="hardAlpha" operator="out" />
            <feColorMatrix type="matrix" values="0 0 0 0 1 0 0 0 0 0.317647 0 0 0 0 0 0 0 0 1 0" />
            <feBlend mode="normal" in2="effect1_dropShadow_244_2" result="effect2_dropShadow_244_2" />
            <feColorMatrix in="SourceAlpha" type="matrix"
                values="0 0 0 0 0 0 0 0 0 0 0 0 0 0 0 0 0 0 127 0" result="hardAlpha" />
            <feOffset />
            <feGaussianBlur stdDeviation="40" />
            <feComposite in2="hardAlpha" operator="out" />
            <feColorMatrix type="matrix" values="0 0 0 0 1 0 0 0 0 0.317647 0 0 0 0 0 0 0 0 1 0" />
            <feBlend mode="normal" in2="effect2_dropShadow_244_2" result="effect3_dropShadow_244_2" />
            <feColorMatrix in="SourceAlpha" type="matrix"
                values="0 0 0 0 0 0 0 0 0 0 0 0 0 0 0 0 0 0 127 0" result="hardAlpha" />
            <feOffset />
            <feGaussianBlur stdDeviation="36.5" />
            <feComposite in2="hardAlpha" operator="out" />
            <feColorMatrix type="matrix" values="0 0 0 0 1 0 0 0 0 0.317647 0 0 0 0 0 0 0 0 1 0" />
            <feBlend mode="normal" in2="effect3_dropShadow_244_2" result="effect4_dropShadow_244_2" />
            <feColorMatrix in="SourceAlpha" type="matrix"
                values="0 0 0 0 0 0 0 0 0 0 0 0 0 0 0 0 0 0 127 0" result="hardAlpha" />
            <feOffset />
            <feGaussianBlur stdDeviation="19" />
            <feComposite in2="hardAlpha" operator="out" />
            <feColorMatrix type="matrix" values="0 0 0 0 1 0 0 0 0 0.317647 0 0 0 0 0 0 0 0 1 0" />
            <feBlend mode="normal" in2="effect4_dropShadow_244_2" result="effect5_dropShadow_244_2" />
            <feColorMatrix in="SourceAlpha" type="matrix"
                values="0 0 0 0 0 0 0 0 0 0 0 0 0 0 0 0 0 0 127 0" result="hardAlpha" />
            <feOffset />
            <feGaussianBlur stdDeviation="9" />
            <feComposite in2="hardAlpha" operator="out" />
            <feColorMatrix type="matrix"
                values="0 0 0 0 1 0 0 0 0 0.92549 0 0 0 0 0.886275 0 0 0 1 0" />
            <feBlend mode="normal" in2="effect5_dropShadow_244_2" result="effect6_dropShadow_244_2" />
            <feColorMatrix in="SourceAlpha" type="matrix"
                values="0 0 0 0 0 0 0 0 0 0 0 0 0 0 0 0 0 0 127 0" result="hardAlpha" />
            <feOffset />
            <feGaussianBlur stdDeviation="5" />
            <feComposite in2="hardAlpha" operator="out" />
            <feColorMatrix type="matrix"
                values="0 0 0 0 1 0 0 0 0 0.92549 0 0 0 0 0.886275 0 0 0 1 0" />
            <feBlend mode="normal" in2="effect6_dropShadow_244_2" result="effect7_dropShadow_244_2" />
            <feColorMatrix in="SourceAlpha" type="matrix"
                values="0 0 0 0 0 0 0 0 0 0 0 0 0 0 0 0 0 0 127 0" result="hardAlpha" />
            <feOffset />
            <feGaussianBlur stdDeviation="2" />
            <feComposite in2="hardAlpha" operator="out" />
            <feColorMatrix type="matrix"
                values="0 0 0 0 1 0 0 0 0 0.92549 0 0 0 0 0.886275 0 0 0 1 0" />
            <feBlend mode="normal" in2="effect7_dropShadow_244_2" result="effect8_dropShadow_244_2" />
            <feBlend mode="normal" in="SourceGraphic" in2="effect8_dropShadow_244_2" result="shape" />
        </filter>
    </defs>

</svg>
