<svg width="392" height="154" viewBox="0 40 392 164" fill="none" xmlns="http://www.w3.org/2000/svg">
<style>
@keyframes pulsate {
    100% {
    	--filter: url(#filter0_ddddddd_244_2);
    }

    0% {
    	--filter: url(#filter1_ddddddd_244_3);
    }
}

    #svgFilter {
    --filter: url(#filter0_dddddddd_244_3);
    animation: pulsate 0.31s ease-in-out infinite alternate;
    }
</style>
<g filter="var(--filter)" id="svgFilter">
<mask id="path-1-outside-1_244_2" maskUnits="userSpaceOnUse" x="81" y="81" width="230" height="42" fill="black">
<rect fill="white" x="81" y="81" width="230" height="42"/>
<path d="M101.818 93.3125C101.619 92.6212 101.34 92.0104 100.98 91.4801C100.62 90.9403 100.18 90.4858 99.6591 90.1165C99.1477 89.7377 98.5606 89.4489 97.8977 89.25C97.2443 89.0511 96.5199 88.9517 95.7244 88.9517C94.2377 88.9517 92.9309 89.321 91.804 90.0597C90.6866 90.7983 89.8153 91.8731 89.1903 93.2841C88.5653 94.6856 88.2528 96.3996 88.2528 98.4261C88.2528 100.453 88.5606 102.176 89.1761 103.597C89.7917 105.017 90.6629 106.101 91.7898 106.849C92.9167 107.588 94.2472 107.957 95.7812 107.957C97.1733 107.957 98.3617 107.711 99.3466 107.219C100.341 106.717 101.098 106.011 101.619 105.102C102.15 104.193 102.415 103.118 102.415 101.878L103.665 102.062H96.1648V97.4318H108.338V101.097C108.338 103.653 107.798 105.85 106.719 107.688C105.639 109.515 104.152 110.926 102.259 111.92C100.365 112.905 98.196 113.398 95.7528 113.398C93.0256 113.398 90.6297 112.796 88.5653 111.594C86.5009 110.382 84.8911 108.663 83.7358 106.438C82.59 104.203 82.017 101.551 82.017 98.483C82.017 96.125 82.358 94.0227 83.0398 92.1761C83.7311 90.3201 84.697 88.7481 85.9375 87.4602C87.178 86.1723 88.6222 85.1922 90.2699 84.5199C91.9176 83.8475 93.7027 83.5114 95.625 83.5114C97.2727 83.5114 98.8068 83.7528 100.227 84.2358C101.648 84.7093 102.907 85.3816 104.006 86.2528C105.114 87.1241 106.018 88.161 106.719 89.3636C107.42 90.5568 107.869 91.8731 108.068 93.3125H101.818ZM119.066 113.412C117.674 113.412 116.433 113.17 115.344 112.688C114.255 112.195 113.394 111.471 112.759 110.514C112.134 109.548 111.822 108.346 111.822 106.906C111.822 105.694 112.044 104.676 112.489 103.852C112.934 103.028 113.54 102.366 114.308 101.864C115.075 101.362 115.946 100.983 116.921 100.727C117.906 100.472 118.938 100.292 120.018 100.188C121.287 100.055 122.309 99.9318 123.086 99.8182C123.862 99.6951 124.426 99.5152 124.776 99.2784C125.127 99.0417 125.302 98.6913 125.302 98.2273V98.142C125.302 97.2424 125.018 96.5464 124.45 96.054C123.891 95.5616 123.095 95.3153 122.063 95.3153C120.974 95.3153 120.108 95.5568 119.464 96.0398C118.82 96.5133 118.394 97.1098 118.185 97.8295L112.589 97.375C112.873 96.0492 113.432 94.9034 114.265 93.9375C115.098 92.9621 116.173 92.214 117.489 91.6932C118.815 91.1629 120.349 90.8977 122.092 90.8977C123.304 90.8977 124.464 91.0398 125.572 91.3239C126.689 91.608 127.679 92.0483 128.54 92.6449C129.412 93.2415 130.098 94.0085 130.6 94.946C131.102 95.8741 131.353 96.9867 131.353 98.2841V113H125.614V109.974H125.444C125.094 110.656 124.625 111.258 124.038 111.778C123.451 112.29 122.745 112.692 121.921 112.986C121.097 113.27 120.146 113.412 119.066 113.412ZM120.799 109.236C121.689 109.236 122.475 109.061 123.157 108.71C123.839 108.35 124.374 107.867 124.762 107.261C125.15 106.655 125.344 105.969 125.344 105.202V102.886C125.155 103.009 124.895 103.123 124.563 103.227C124.241 103.322 123.877 103.412 123.469 103.497C123.062 103.573 122.655 103.644 122.248 103.71C121.841 103.767 121.471 103.819 121.14 103.866C120.43 103.971 119.809 104.136 119.279 104.364C118.749 104.591 118.337 104.899 118.043 105.287C117.75 105.666 117.603 106.139 117.603 106.707C117.603 107.531 117.901 108.161 118.498 108.597C119.104 109.023 119.871 109.236 120.799 109.236ZM136.048 113V91.1818H141.815V95.0312H142.07C142.525 93.7528 143.282 92.7443 144.343 92.0057C145.404 91.267 146.673 90.8977 148.15 90.8977C149.646 90.8977 150.92 91.2718 151.971 92.0199C153.022 92.7585 153.723 93.7623 154.073 95.0312H154.3C154.746 93.7812 155.55 92.7822 156.715 92.0341C157.889 91.2765 159.277 90.8977 160.877 90.8977C162.913 90.8977 164.566 91.5464 165.835 92.8438C167.113 94.1316 167.752 95.9593 167.752 98.3267V113H161.715V99.5199C161.715 98.3078 161.393 97.3987 160.749 96.7926C160.105 96.1866 159.3 95.8835 158.335 95.8835C157.236 95.8835 156.379 96.2339 155.763 96.9347C155.148 97.6259 154.84 98.5398 154.84 99.6761V113H148.974V99.392C148.974 98.322 148.666 97.4697 148.05 96.8352C147.444 96.2008 146.644 95.8835 145.65 95.8835C144.978 95.8835 144.371 96.054 143.832 96.3949C143.301 96.7263 142.88 97.1951 142.567 97.8011C142.255 98.3977 142.099 99.0985 142.099 99.9034V113H136.048ZM172.532 113V91.1818H178.583V113H172.532ZM175.572 88.3693C174.672 88.3693 173.9 88.071 173.256 87.4744C172.622 86.8684 172.305 86.1439 172.305 85.3011C172.305 84.4678 172.622 83.7528 173.256 83.1562C173.9 82.5502 174.672 82.2472 175.572 82.2472C176.471 82.2472 177.238 82.5502 177.873 83.1562C178.517 83.7528 178.839 84.4678 178.839 85.3011C178.839 86.1439 178.517 86.8684 177.873 87.4744C177.238 88.071 176.471 88.3693 175.572 88.3693ZM189.482 100.386V113H183.43V91.1818H189.197V95.0312H189.453C189.936 93.7623 190.746 92.7585 191.882 92.0199C193.018 91.2718 194.396 90.8977 196.016 90.8977C197.531 90.8977 198.852 91.2292 199.979 91.892C201.106 92.5549 201.982 93.5019 202.607 94.733C203.232 95.9545 203.544 97.4129 203.544 99.108V113H197.493V100.188C197.502 98.8523 197.161 97.8106 196.47 97.0625C195.779 96.3049 194.827 95.9261 193.615 95.9261C192.801 95.9261 192.081 96.1013 191.456 96.4517C190.84 96.8021 190.357 97.3134 190.007 97.9858C189.666 98.6487 189.491 99.4489 189.482 100.386ZM218.143 121.636C216.183 121.636 214.502 121.366 213.1 120.827C211.708 120.296 210.6 119.572 209.776 118.653C208.952 117.735 208.417 116.703 208.171 115.557L213.768 114.804C213.938 115.24 214.208 115.647 214.577 116.026C214.947 116.404 215.434 116.707 216.04 116.935C216.656 117.171 217.404 117.29 218.285 117.29C219.601 117.29 220.685 116.968 221.538 116.324C222.399 115.689 222.83 114.624 222.83 113.128V109.136H222.575C222.309 109.742 221.912 110.315 221.381 110.855C220.851 111.395 220.169 111.835 219.336 112.176C218.503 112.517 217.508 112.688 216.353 112.688C214.715 112.688 213.223 112.309 211.879 111.551C210.543 110.784 209.478 109.615 208.683 108.043C207.897 106.461 207.504 104.463 207.504 102.048C207.504 99.5767 207.906 97.5123 208.711 95.8551C209.516 94.1979 210.586 92.9574 211.921 92.1335C213.266 91.3097 214.738 90.8977 216.339 90.8977C217.56 90.8977 218.583 91.1061 219.407 91.5227C220.231 91.9299 220.894 92.4413 221.396 93.0568C221.907 93.6629 222.3 94.2595 222.575 94.8466H222.802V91.1818H228.81V113.213C228.81 115.069 228.356 116.622 227.447 117.872C226.538 119.122 225.278 120.06 223.668 120.685C222.068 121.319 220.226 121.636 218.143 121.636ZM218.271 108.142C219.246 108.142 220.07 107.901 220.742 107.418C221.424 106.925 221.945 106.224 222.305 105.315C222.674 104.397 222.859 103.298 222.859 102.02C222.859 100.741 222.679 99.6335 222.319 98.696C221.959 97.7491 221.438 97.0152 220.756 96.4943C220.075 95.9735 219.246 95.7131 218.271 95.7131C217.276 95.7131 216.438 95.983 215.756 96.5227C215.075 97.053 214.558 97.7917 214.208 98.7386C213.858 99.6856 213.683 100.779 213.683 102.02C213.683 103.279 213.858 104.368 214.208 105.287C214.568 106.196 215.084 106.902 215.756 107.403C216.438 107.896 217.276 108.142 218.271 108.142ZM233.739 113V83.9091H239.89V95.9119H252.376V83.9091H258.512V113H252.376V100.983H239.89V113H233.739ZM277.461 103.71V91.1818H283.512V113H277.702V109.037H277.475C276.983 110.315 276.164 111.343 275.018 112.119C273.881 112.896 272.494 113.284 270.856 113.284C269.397 113.284 268.114 112.953 267.006 112.29C265.898 111.627 265.032 110.685 264.407 109.463C263.791 108.241 263.479 106.778 263.469 105.074V91.1818H269.521V103.994C269.53 105.282 269.876 106.3 270.558 107.048C271.239 107.796 272.153 108.17 273.299 108.17C274.028 108.17 274.71 108.005 275.344 107.673C275.979 107.332 276.49 106.83 276.879 106.168C277.276 105.505 277.47 104.686 277.461 103.71ZM288.466 113V83.9091H294.517V94.8466H294.702C294.967 94.2595 295.35 93.6629 295.852 93.0568C296.364 92.4413 297.027 91.9299 297.841 91.5227C298.665 91.1061 299.688 90.8977 300.909 90.8977C302.5 90.8977 303.968 91.3144 305.312 92.1477C306.657 92.9716 307.732 94.2169 308.537 95.8835C309.342 97.5407 309.744 99.6193 309.744 102.119C309.744 104.553 309.351 106.608 308.565 108.284C307.789 109.951 306.728 111.215 305.384 112.077C304.048 112.929 302.552 113.355 300.895 113.355C299.721 113.355 298.722 113.161 297.898 112.773C297.083 112.384 296.416 111.897 295.895 111.31C295.374 110.713 294.976 110.112 294.702 109.506H294.432V113H288.466ZM294.389 102.091C294.389 103.388 294.569 104.52 294.929 105.486C295.289 106.452 295.81 107.205 296.491 107.744C297.173 108.275 298.002 108.54 298.977 108.54C299.962 108.54 300.795 108.27 301.477 107.73C302.159 107.181 302.675 106.423 303.026 105.457C303.385 104.482 303.565 103.36 303.565 102.091C303.565 100.831 303.39 99.7235 303.04 98.767C302.689 97.8106 302.173 97.0625 301.491 96.5227C300.81 95.983 299.972 95.7131 298.977 95.7131C297.992 95.7131 297.159 95.9735 296.477 96.4943C295.805 97.0152 295.289 97.7538 294.929 98.7102C294.569 99.6667 294.389 100.794 294.389 102.091Z"/>
</mask>
<path d="M101.818 93.3125C101.619 92.6212 101.34 92.0104 100.98 91.4801C100.62 90.9403 100.18 90.4858 99.6591 90.1165C99.1477 89.7377 98.5606 89.4489 97.8977 89.25C97.2443 89.0511 96.5199 88.9517 95.7244 88.9517C94.2377 88.9517 92.9309 89.321 91.804 90.0597C90.6866 90.7983 89.8153 91.8731 89.1903 93.2841C88.5653 94.6856 88.2528 96.3996 88.2528 98.4261C88.2528 100.453 88.5606 102.176 89.1761 103.597C89.7917 105.017 90.6629 106.101 91.7898 106.849C92.9167 107.588 94.2472 107.957 95.7812 107.957C97.1733 107.957 98.3617 107.711 99.3466 107.219C100.341 106.717 101.098 106.011 101.619 105.102C102.15 104.193 102.415 103.118 102.415 101.878L103.665 102.062H96.1648V97.4318H108.338V101.097C108.338 103.653 107.798 105.85 106.719 107.688C105.639 109.515 104.152 110.926 102.259 111.92C100.365 112.905 98.196 113.398 95.7528 113.398C93.0256 113.398 90.6297 112.796 88.5653 111.594C86.5009 110.382 84.8911 108.663 83.7358 106.438C82.59 104.203 82.017 101.551 82.017 98.483C82.017 96.125 82.358 94.0227 83.0398 92.1761C83.7311 90.3201 84.697 88.7481 85.9375 87.4602C87.178 86.1723 88.6222 85.1922 90.2699 84.5199C91.9176 83.8475 93.7027 83.5114 95.625 83.5114C97.2727 83.5114 98.8068 83.7528 100.227 84.2358C101.648 84.7093 102.907 85.3816 104.006 86.2528C105.114 87.1241 106.018 88.161 106.719 89.3636C107.42 90.5568 107.869 91.8731 108.068 93.3125H101.818ZM119.066 113.412C117.674 113.412 116.433 113.17 115.344 112.688C114.255 112.195 113.394 111.471 112.759 110.514C112.134 109.548 111.822 108.346 111.822 106.906C111.822 105.694 112.044 104.676 112.489 103.852C112.934 103.028 113.54 102.366 114.308 101.864C115.075 101.362 115.946 100.983 116.921 100.727C117.906 100.472 118.938 100.292 120.018 100.188C121.287 100.055 122.309 99.9318 123.086 99.8182C123.862 99.6951 124.426 99.5152 124.776 99.2784C125.127 99.0417 125.302 98.6913 125.302 98.2273V98.142C125.302 97.2424 125.018 96.5464 124.45 96.054C123.891 95.5616 123.095 95.3153 122.063 95.3153C120.974 95.3153 120.108 95.5568 119.464 96.0398C118.82 96.5133 118.394 97.1098 118.185 97.8295L112.589 97.375C112.873 96.0492 113.432 94.9034 114.265 93.9375C115.098 92.9621 116.173 92.214 117.489 91.6932C118.815 91.1629 120.349 90.8977 122.092 90.8977C123.304 90.8977 124.464 91.0398 125.572 91.3239C126.689 91.608 127.679 92.0483 128.54 92.6449C129.412 93.2415 130.098 94.0085 130.6 94.946C131.102 95.8741 131.353 96.9867 131.353 98.2841V113H125.614V109.974H125.444C125.094 110.656 124.625 111.258 124.038 111.778C123.451 112.29 122.745 112.692 121.921 112.986C121.097 113.27 120.146 113.412 119.066 113.412ZM120.799 109.236C121.689 109.236 122.475 109.061 123.157 108.71C123.839 108.35 124.374 107.867 124.762 107.261C125.15 106.655 125.344 105.969 125.344 105.202V102.886C125.155 103.009 124.895 103.123 124.563 103.227C124.241 103.322 123.877 103.412 123.469 103.497C123.062 103.573 122.655 103.644 122.248 103.71C121.841 103.767 121.471 103.819 121.14 103.866C120.43 103.971 119.809 104.136 119.279 104.364C118.749 104.591 118.337 104.899 118.043 105.287C117.75 105.666 117.603 106.139 117.603 106.707C117.603 107.531 117.901 108.161 118.498 108.597C119.104 109.023 119.871 109.236 120.799 109.236ZM136.048 113V91.1818H141.815V95.0312H142.07C142.525 93.7528 143.282 92.7443 144.343 92.0057C145.404 91.267 146.673 90.8977 148.15 90.8977C149.646 90.8977 150.92 91.2718 151.971 92.0199C153.022 92.7585 153.723 93.7623 154.073 95.0312H154.3C154.746 93.7812 155.55 92.7822 156.715 92.0341C157.889 91.2765 159.277 90.8977 160.877 90.8977C162.913 90.8977 164.566 91.5464 165.835 92.8438C167.113 94.1316 167.752 95.9593 167.752 98.3267V113H161.715V99.5199C161.715 98.3078 161.393 97.3987 160.749 96.7926C160.105 96.1866 159.3 95.8835 158.335 95.8835C157.236 95.8835 156.379 96.2339 155.763 96.9347C155.148 97.6259 154.84 98.5398 154.84 99.6761V113H148.974V99.392C148.974 98.322 148.666 97.4697 148.05 96.8352C147.444 96.2008 146.644 95.8835 145.65 95.8835C144.978 95.8835 144.371 96.054 143.832 96.3949C143.301 96.7263 142.88 97.1951 142.567 97.8011C142.255 98.3977 142.099 99.0985 142.099 99.9034V113H136.048ZM172.532 113V91.1818H178.583V113H172.532ZM175.572 88.3693C174.672 88.3693 173.9 88.071 173.256 87.4744C172.622 86.8684 172.305 86.1439 172.305 85.3011C172.305 84.4678 172.622 83.7528 173.256 83.1562C173.9 82.5502 174.672 82.2472 175.572 82.2472C176.471 82.2472 177.238 82.5502 177.873 83.1562C178.517 83.7528 178.839 84.4678 178.839 85.3011C178.839 86.1439 178.517 86.8684 177.873 87.4744C177.238 88.071 176.471 88.3693 175.572 88.3693ZM189.482 100.386V113H183.43V91.1818H189.197V95.0312H189.453C189.936 93.7623 190.746 92.7585 191.882 92.0199C193.018 91.2718 194.396 90.8977 196.016 90.8977C197.531 90.8977 198.852 91.2292 199.979 91.892C201.106 92.5549 201.982 93.5019 202.607 94.733C203.232 95.9545 203.544 97.4129 203.544 99.108V113H197.493V100.188C197.502 98.8523 197.161 97.8106 196.47 97.0625C195.779 96.3049 194.827 95.9261 193.615 95.9261C192.801 95.9261 192.081 96.1013 191.456 96.4517C190.84 96.8021 190.357 97.3134 190.007 97.9858C189.666 98.6487 189.491 99.4489 189.482 100.386ZM218.143 121.636C216.183 121.636 214.502 121.366 213.1 120.827C211.708 120.296 210.6 119.572 209.776 118.653C208.952 117.735 208.417 116.703 208.171 115.557L213.768 114.804C213.938 115.24 214.208 115.647 214.577 116.026C214.947 116.404 215.434 116.707 216.04 116.935C216.656 117.171 217.404 117.29 218.285 117.29C219.601 117.29 220.685 116.968 221.538 116.324C222.399 115.689 222.83 114.624 222.83 113.128V109.136H222.575C222.309 109.742 221.912 110.315 221.381 110.855C220.851 111.395 220.169 111.835 219.336 112.176C218.503 112.517 217.508 112.688 216.353 112.688C214.715 112.688 213.223 112.309 211.879 111.551C210.543 110.784 209.478 109.615 208.683 108.043C207.897 106.461 207.504 104.463 207.504 102.048C207.504 99.5767 207.906 97.5123 208.711 95.8551C209.516 94.1979 210.586 92.9574 211.921 92.1335C213.266 91.3097 214.738 90.8977 216.339 90.8977C217.56 90.8977 218.583 91.1061 219.407 91.5227C220.231 91.9299 220.894 92.4413 221.396 93.0568C221.907 93.6629 222.3 94.2595 222.575 94.8466H222.802V91.1818H228.81V113.213C228.81 115.069 228.356 116.622 227.447 117.872C226.538 119.122 225.278 120.06 223.668 120.685C222.068 121.319 220.226 121.636 218.143 121.636ZM218.271 108.142C219.246 108.142 220.07 107.901 220.742 107.418C221.424 106.925 221.945 106.224 222.305 105.315C222.674 104.397 222.859 103.298 222.859 102.02C222.859 100.741 222.679 99.6335 222.319 98.696C221.959 97.7491 221.438 97.0152 220.756 96.4943C220.075 95.9735 219.246 95.7131 218.271 95.7131C217.276 95.7131 216.438 95.983 215.756 96.5227C215.075 97.053 214.558 97.7917 214.208 98.7386C213.858 99.6856 213.683 100.779 213.683 102.02C213.683 103.279 213.858 104.368 214.208 105.287C214.568 106.196 215.084 106.902 215.756 107.403C216.438 107.896 217.276 108.142 218.271 108.142ZM233.739 113V83.9091H239.89V95.9119H252.376V83.9091H258.512V113H252.376V100.983H239.89V113H233.739ZM277.461 103.71V91.1818H283.512V113H277.702V109.037H277.475C276.983 110.315 276.164 111.343 275.018 112.119C273.881 112.896 272.494 113.284 270.856 113.284C269.397 113.284 268.114 112.953 267.006 112.29C265.898 111.627 265.032 110.685 264.407 109.463C263.791 108.241 263.479 106.778 263.469 105.074V91.1818H269.521V103.994C269.53 105.282 269.876 106.3 270.558 107.048C271.239 107.796 272.153 108.17 273.299 108.17C274.028 108.17 274.71 108.005 275.344 107.673C275.979 107.332 276.49 106.83 276.879 106.168C277.276 105.505 277.47 104.686 277.461 103.71ZM288.466 113V83.9091H294.517V94.8466H294.702C294.967 94.2595 295.35 93.6629 295.852 93.0568C296.364 92.4413 297.027 91.9299 297.841 91.5227C298.665 91.1061 299.688 90.8977 300.909 90.8977C302.5 90.8977 303.968 91.3144 305.312 92.1477C306.657 92.9716 307.732 94.2169 308.537 95.8835C309.342 97.5407 309.744 99.6193 309.744 102.119C309.744 104.553 309.351 106.608 308.565 108.284C307.789 109.951 306.728 111.215 305.384 112.077C304.048 112.929 302.552 113.355 300.895 113.355C299.721 113.355 298.722 113.161 297.898 112.773C297.083 112.384 296.416 111.897 295.895 111.31C295.374 110.713 294.976 110.112 294.702 109.506H294.432V113H288.466ZM294.389 102.091C294.389 103.388 294.569 104.52 294.929 105.486C295.289 106.452 295.81 107.205 296.491 107.744C297.173 108.275 298.002 108.54 298.977 108.54C299.962 108.54 300.795 108.27 301.477 107.73C302.159 107.181 302.675 106.423 303.026 105.457C303.385 104.482 303.565 103.36 303.565 102.091C303.565 100.831 303.39 99.7235 303.04 98.767C302.689 97.8106 302.173 97.0625 301.491 96.5227C300.81 95.983 299.972 95.7131 298.977 95.7131C297.992 95.7131 297.159 95.9735 296.477 96.4943C295.805 97.0152 295.289 97.7538 294.929 98.7102C294.569 99.6667 294.389 100.794 294.389 102.091Z" fill="#FFECE2"/>
<path d="M101.818 93.3125L100.857 93.589L101.065 94.3125H101.818V93.3125ZM100.98 91.4801L100.148 92.0348L100.153 92.0416L100.98 91.4801ZM99.6591 90.1165L99.0639 90.92L99.0722 90.9262L99.0807 90.9322L99.6591 90.1165ZM97.8977 89.25L97.6066 90.2067L97.6104 90.2078L97.8977 89.25ZM91.804 90.0597L91.2558 89.2233L91.2525 89.2254L91.804 90.0597ZM89.1903 93.2841L90.1036 93.6914L90.1047 93.6891L89.1903 93.2841ZM91.7898 106.849L91.2367 107.683L91.2416 107.686L91.7898 106.849ZM99.3466 107.219L99.7938 108.113L99.7972 108.111L99.3466 107.219ZM101.619 105.102L100.756 104.598L100.752 104.605L101.619 105.102ZM102.415 101.878L102.561 100.889L101.415 100.719V101.878H102.415ZM103.665 102.062V103.062L103.811 101.073L103.665 102.062ZM96.1648 102.062H95.1648V103.062H96.1648V102.062ZM96.1648 97.4318V96.4318H95.1648V97.4318H96.1648ZM108.338 97.4318H109.338V96.4318H108.338V97.4318ZM106.719 107.688L107.58 108.196L107.581 108.194L106.719 107.688ZM102.259 111.92L102.72 112.808L102.723 112.806L102.259 111.92ZM88.5653 111.594L88.059 112.456L88.062 112.458L88.5653 111.594ZM83.7358 106.438L82.8459 106.894L82.8483 106.898L83.7358 106.438ZM83.0398 92.1761L82.1027 91.8271L82.1017 91.8298L83.0398 92.1761ZM85.9375 87.4602L86.6577 88.154H86.6577L85.9375 87.4602ZM90.2699 84.5199L89.8921 83.594V83.594L90.2699 84.5199ZM100.227 84.2358L99.9054 85.1826L99.911 85.1845L100.227 84.2358ZM104.006 86.2528L103.384 87.0363L103.388 87.0389L104.006 86.2528ZM106.719 89.3636L105.855 89.8671L105.856 89.8701L106.719 89.3636ZM108.068 93.3125V94.3125H109.216L109.059 93.1756L108.068 93.3125ZM101.818 93.3125L102.779 93.036C102.555 92.2556 102.233 91.5463 101.808 90.9186L100.98 91.4801L100.153 92.0416C100.446 92.4746 100.684 92.9869 100.857 93.589L101.818 93.3125ZM100.98 91.4801L101.812 90.9254C101.386 90.2855 100.86 89.742 100.238 89.3007L99.6591 90.1165L99.0807 90.9322C99.5001 91.2296 99.855 91.5952 100.148 92.0348L100.98 91.4801ZM99.6591 90.1165L100.254 89.3129C99.6422 88.8595 98.949 88.5214 98.1851 88.2922L97.8977 89.25L97.6104 90.2078C98.1722 90.3764 98.6532 90.6159 99.0639 90.92L99.6591 90.1165ZM97.8977 89.25L98.1889 88.2933C97.4271 88.0615 96.6027 87.9517 95.7244 87.9517V88.9517V89.9517C96.4371 89.9517 97.0616 90.0408 97.6066 90.2067L97.8977 89.25ZM95.7244 88.9517V87.9517C94.0638 87.9517 92.5622 88.367 91.2558 89.2233L91.804 90.0597L92.3522 90.896C93.2995 90.2751 94.4115 89.9517 95.7244 89.9517V88.9517ZM91.804 90.0597L91.2525 89.2254C89.9525 90.0848 88.9664 91.3205 88.276 92.8791L89.1903 93.2841L90.1047 93.6891C90.6643 92.4257 91.4206 91.5118 92.3554 90.8939L91.804 90.0597ZM89.1903 93.2841L88.277 92.8768C87.5797 94.4406 87.2528 96.3021 87.2528 98.4261H88.2528H89.2528C89.2528 96.4971 89.551 94.9306 90.1036 93.6914L89.1903 93.2841ZM88.2528 98.4261H87.2528C87.2528 100.549 87.5747 102.416 88.2586 103.994L89.1761 103.597L90.0937 103.199C89.5466 101.936 89.2528 100.356 89.2528 98.4261H88.2528ZM89.1761 103.597L88.2586 103.994C88.9396 105.566 89.9264 106.813 91.2367 107.683L91.7898 106.849L92.3429 106.016C91.3993 105.39 90.6438 104.468 90.0937 103.199L89.1761 103.597ZM91.7898 106.849L91.2416 107.686C92.5531 108.545 94.0802 108.957 95.7812 108.957V107.957V106.957C94.4141 106.957 93.2802 106.631 92.338 106.013L91.7898 106.849ZM95.7812 107.957V108.957C97.2886 108.957 98.6383 108.691 99.7938 108.113L99.3466 107.219L98.8994 106.324C98.0852 106.731 97.058 106.957 95.7812 106.957V107.957ZM99.3466 107.219L99.7972 108.111C100.955 107.527 101.863 106.689 102.487 105.599L101.619 105.102L100.752 104.605C100.334 105.333 99.7271 105.906 98.896 106.326L99.3466 107.219ZM101.619 105.102L102.483 105.606C103.117 104.519 103.415 103.264 103.415 101.878H102.415H101.415C101.415 102.973 101.182 103.868 100.756 104.598L101.619 105.102ZM102.415 101.878L102.269 102.867L103.519 103.052L103.665 102.062L103.811 101.073L102.561 100.889L102.415 101.878ZM103.665 102.062V101.062H96.1648V102.062V103.062H103.665V102.062ZM96.1648 102.062H97.1648V97.4318H96.1648H95.1648V102.062H96.1648ZM96.1648 97.4318V98.4318H108.338V97.4318V96.4318H96.1648V97.4318ZM108.338 97.4318H107.338V101.097H108.338H109.338V97.4318H108.338ZM108.338 101.097H107.338C107.338 103.511 106.829 105.525 105.857 107.181L106.719 107.688L107.581 108.194C108.767 106.175 109.338 103.796 109.338 101.097H108.338ZM106.719 107.688L105.858 107.179C104.873 108.845 103.524 110.126 101.794 111.035L102.259 111.92L102.723 112.806C104.78 111.726 106.405 110.185 107.58 108.196L106.719 107.688ZM102.259 111.92L101.797 111.033C100.065 111.934 98.0588 112.398 95.7528 112.398V113.398V114.398C98.3333 114.398 100.664 113.877 102.72 112.808L102.259 111.92ZM95.7528 113.398V112.398C93.177 112.398 90.9597 111.831 89.0687 110.73L88.5653 111.594L88.062 112.458C90.2998 113.761 92.8742 114.398 95.7528 114.398V113.398ZM88.5653 111.594L89.0717 110.731C87.1775 109.619 85.6962 108.043 84.6233 105.977L83.7358 106.438L82.8483 106.898C84.086 109.282 85.8244 111.144 88.059 112.456L88.5653 111.594ZM83.7358 106.438L84.6257 105.981C83.5665 103.916 83.017 101.427 83.017 98.483H82.017H81.017C81.017 101.675 81.6134 104.49 82.8459 106.894L83.7358 106.438ZM82.017 98.483H83.017C83.017 96.2204 83.3442 94.2387 83.9779 92.5225L83.0398 92.1761L82.1017 91.8298C81.3717 93.8068 81.017 96.0296 81.017 98.483H82.017ZM83.0398 92.1761L83.9769 92.5252C84.6255 90.7838 85.5221 89.3329 86.6577 88.154L85.9375 87.4602L85.2173 86.7665C83.8718 88.1633 82.8367 89.8564 82.1027 91.8271L83.0398 92.1761ZM85.9375 87.4602L86.6577 88.154C87.802 86.966 89.1297 86.0652 90.6477 85.4458L90.2699 84.5199L89.8921 83.594C88.1146 84.3193 86.554 85.3787 85.2173 86.7665L85.9375 87.4602ZM90.2699 84.5199L90.6477 85.4458C92.1661 84.8262 93.8217 84.5114 95.625 84.5114V83.5114V82.5114C93.5836 82.5114 91.6691 82.8689 89.8921 83.594L90.2699 84.5199ZM95.625 83.5114V84.5114C97.1739 84.5114 98.5983 84.7381 99.9054 85.1826L100.227 84.2358L100.549 83.289C99.0154 82.7675 97.3715 82.5114 95.625 82.5114V83.5114ZM100.227 84.2358L99.911 85.1845C101.228 85.6236 102.383 86.2423 103.384 87.0363L104.006 86.2528L104.627 85.4693C103.431 84.5209 102.067 83.7949 100.544 83.2871L100.227 84.2358ZM104.006 86.2528L103.388 87.0389C104.398 87.8333 105.218 88.7747 105.855 89.8671L106.719 89.3636L107.583 88.8602C106.818 87.5473 105.83 86.4148 104.624 85.4668L104.006 86.2528ZM106.719 89.3636L105.856 89.8701C106.487 90.9441 106.896 92.1338 107.078 93.4494L108.068 93.3125L109.059 93.1756C108.843 91.6125 108.352 90.1696 107.581 88.8572L106.719 89.3636ZM108.068 93.3125V92.3125H101.818V93.3125V94.3125H108.068V93.3125ZM115.344 112.688L114.932 113.599L114.939 113.602L115.344 112.688ZM112.759 110.514L111.92 111.057L111.926 111.067L112.759 110.514ZM112.489 103.852L111.61 103.377L112.489 103.852ZM114.308 101.864L113.76 101.027V101.027L114.308 101.864ZM116.921 100.727L116.67 99.7594L116.668 99.76L116.921 100.727ZM120.018 100.188L120.114 101.183L120.122 101.182L120.018 100.188ZM123.086 99.8182L123.231 100.808L123.243 100.806L123.086 99.8182ZM124.776 99.2784L124.216 98.4498H124.216L124.776 99.2784ZM124.45 96.054L123.788 96.8042L123.795 96.8097L124.45 96.054ZM119.464 96.0398L120.056 96.8455L120.064 96.8398L119.464 96.0398ZM118.185 97.8295L118.104 98.8263L118.919 98.8924L119.146 98.1076L118.185 97.8295ZM112.589 97.375L111.611 97.1655L111.372 98.2795L112.508 98.3717L112.589 97.375ZM114.265 93.9375L115.022 94.5907L115.025 94.5871L114.265 93.9375ZM117.489 91.6932L117.857 92.623L117.861 92.6217L117.489 91.6932ZM125.572 91.3239L125.323 92.2925L125.325 92.293L125.572 91.3239ZM128.54 92.6449L127.971 93.4671L127.975 93.47L128.54 92.6449ZM130.6 94.946L129.719 95.418L129.721 95.4217L130.6 94.946ZM131.353 113V114H132.353V113H131.353ZM125.614 113H124.614V114H125.614V113ZM125.614 109.974H126.614V108.974H125.614V109.974ZM125.444 109.974V108.974H124.833L124.554 109.517L125.444 109.974ZM124.038 111.778L124.694 112.533L124.701 112.526L124.038 111.778ZM121.921 112.986L122.247 113.931L122.257 113.928L121.921 112.986ZM123.157 108.71L123.614 109.6L123.624 109.595L123.157 108.71ZM124.762 107.261L123.92 106.722L124.762 107.261ZM125.344 102.886H126.344V101.044L124.799 102.048L125.344 102.886ZM124.563 103.227L124.845 104.187L124.854 104.184L124.863 104.181L124.563 103.227ZM123.469 103.497L123.652 104.48L123.663 104.478L123.674 104.476L123.469 103.497ZM122.248 103.71L122.386 104.701L122.397 104.699L122.409 104.697L122.248 103.71ZM121.14 103.866L120.998 102.877L120.995 102.877L121.14 103.866ZM119.279 104.364L119.673 105.283L119.279 104.364ZM118.043 105.287L118.834 105.9L118.841 105.89L118.043 105.287ZM118.498 108.597L117.908 109.404L117.915 109.409L117.923 109.415L118.498 108.597ZM119.066 113.412V112.412C117.79 112.412 116.692 112.191 115.75 111.773L115.344 112.688L114.939 113.602C116.175 114.15 117.558 114.412 119.066 114.412V113.412ZM115.344 112.688L115.756 111.776C114.831 111.358 114.119 110.754 113.593 109.961L112.759 110.514L111.926 111.067C112.669 112.187 113.68 113.032 114.932 113.599L115.344 112.688ZM112.759 110.514L113.599 109.971C113.102 109.203 112.822 108.201 112.822 106.906H111.822H110.822C110.822 108.49 111.166 109.893 111.92 111.057L112.759 110.514ZM111.822 106.906H112.822C112.822 105.813 113.023 104.969 113.369 104.328L112.489 103.852L111.61 103.377C111.066 104.384 110.822 105.576 110.822 106.906H111.822ZM112.489 103.852L113.369 104.328C113.737 103.647 114.23 103.109 114.855 102.7L114.308 101.864L113.76 101.027C112.851 101.622 112.132 102.41 111.61 103.377L112.489 103.852ZM114.308 101.864L114.855 102.7C115.523 102.263 116.293 101.926 117.175 101.695L116.921 100.727L116.668 99.76C115.598 100.04 114.626 100.46 113.76 101.027L114.308 101.864ZM116.921 100.727L117.172 101.695C118.103 101.454 119.083 101.282 120.114 101.183L120.018 100.188L119.922 99.1921C118.793 99.301 117.709 99.4896 116.67 99.7594L116.921 100.727ZM120.018 100.188L120.122 101.182C121.397 101.049 122.435 100.924 123.231 100.808L123.086 99.8182L122.941 98.8287C122.184 98.9395 121.176 99.061 119.914 99.1929L120.018 100.188ZM123.086 99.8182L123.243 100.806C124.06 100.676 124.801 100.469 125.336 100.107L124.776 99.2784L124.216 98.4498C124.051 98.5614 123.665 98.7139 122.929 98.8305L123.086 99.8182ZM124.776 99.2784L125.336 100.107C125.992 99.664 126.302 98.9854 126.302 98.2273H125.302H124.302C124.302 98.3325 124.282 98.3779 124.276 98.3909C124.271 98.4002 124.261 98.4198 124.216 98.4498L124.776 99.2784ZM125.302 98.2273H126.302V98.142H125.302H124.302V98.2273H125.302ZM125.302 98.142H126.302C126.302 97.0149 125.935 96.0181 125.105 95.2983L124.45 96.054L123.795 96.8097C124.1 97.0747 124.302 97.4699 124.302 98.142H125.302ZM124.45 96.054L125.111 95.3038C124.309 94.5975 123.245 94.3153 122.063 94.3153V95.3153V96.3153C122.946 96.3153 123.472 96.5256 123.788 96.8042L124.45 96.054ZM122.063 95.3153V94.3153C120.833 94.3153 119.733 94.588 118.864 95.2398L119.464 96.0398L120.064 96.8398C120.483 96.5256 121.115 96.3153 122.063 96.3153V95.3153ZM119.464 96.0398L118.871 95.2341C118.063 95.8288 117.499 96.6056 117.225 97.5515L118.185 97.8295L119.146 98.1076C119.289 97.6141 119.577 97.1977 120.056 96.8454L119.464 96.0398ZM118.185 97.8295L118.266 96.8328L112.67 96.3783L112.589 97.375L112.508 98.3717L118.104 98.8263L118.185 97.8295ZM112.589 97.375L113.567 97.5845C113.818 96.4122 114.305 95.4216 115.022 94.5907L114.265 93.9375L113.508 93.2843C112.558 94.3852 111.928 95.6863 111.611 97.1655L112.589 97.375ZM114.265 93.9375L115.025 94.5871C115.742 93.7482 116.677 93.0902 117.857 92.623L117.489 91.6932L117.121 90.7633C115.669 91.3379 114.455 92.1761 113.505 93.2879L114.265 93.9375ZM117.489 91.6932L117.861 92.6217C119.045 92.1478 120.449 91.8977 122.092 91.8977V90.8977V89.8977C120.249 89.8977 118.585 90.178 117.118 90.7647L117.489 91.6932ZM122.092 90.8977V91.8977C123.225 91.8977 124.301 92.0304 125.323 92.2925L125.572 91.3239L125.82 90.3552C124.626 90.0491 123.383 89.8977 122.092 89.8977V90.8977ZM125.572 91.3239L125.325 92.293C126.339 92.5507 127.217 92.9448 127.971 93.4671L128.54 92.6449L129.11 91.8227C128.141 91.1518 127.04 90.6652 125.818 90.3547L125.572 91.3239ZM128.54 92.6449L127.975 93.47C128.713 93.9753 129.292 94.6208 129.719 95.418L130.6 94.946L131.482 94.474C130.905 93.3962 130.11 92.5077 129.105 91.8198L128.54 92.6449ZM130.6 94.946L129.721 95.4217C130.127 96.1737 130.353 97.1152 130.353 98.2841H131.353H132.353C132.353 96.8583 132.077 95.5744 131.48 94.4703L130.6 94.946ZM131.353 98.2841H130.353V113H131.353H132.353V98.2841H131.353ZM131.353 113V112H125.614V113V114H131.353V113ZM125.614 113H126.614V109.974H125.614H124.614V113H125.614ZM125.614 109.974V108.974H125.444V109.974V110.974H125.614V109.974ZM125.444 109.974L124.554 109.517C124.262 110.086 123.871 110.59 123.374 111.03L124.038 111.778L124.701 112.526C125.379 111.925 125.925 111.226 126.333 110.431L125.444 109.974ZM124.038 111.778L123.381 111.024C122.899 111.444 122.306 111.787 121.586 112.044L121.921 112.986L122.257 113.928C123.184 113.597 124.002 113.136 124.694 112.532L124.038 111.778ZM121.921 112.986L121.595 112.04C120.898 112.281 120.06 112.412 119.066 112.412V113.412V114.412C120.231 114.412 121.297 114.259 122.247 113.931L121.921 112.986ZM120.799 109.236V110.236C121.822 110.236 122.77 110.034 123.614 109.6L123.157 108.71L122.7 107.821C122.181 108.088 121.556 108.236 120.799 108.236V109.236ZM123.157 108.71L123.624 109.595C124.447 109.16 125.116 108.563 125.604 107.801L124.762 107.261L123.92 106.722C123.632 107.172 123.23 107.541 122.69 107.826L123.157 108.71ZM124.762 107.261L125.604 107.801C126.102 107.023 126.344 106.147 126.344 105.202H125.344H124.344C124.344 105.791 124.198 106.288 123.92 106.722L124.762 107.261ZM125.344 105.202H126.344V102.886H125.344H124.344V105.202H125.344ZM125.344 102.886L124.799 102.048C124.715 102.103 124.549 102.183 124.263 102.273L124.563 103.227L124.863 104.181C125.24 104.063 125.595 103.916 125.889 103.725L125.344 102.886ZM124.563 103.227L124.281 102.268C123.99 102.354 123.652 102.437 123.265 102.518L123.469 103.497L123.674 104.476C124.102 104.387 124.493 104.29 124.845 104.187L124.563 103.227ZM123.469 103.497L123.287 102.514C122.887 102.588 122.487 102.658 122.087 102.723L122.248 103.71L122.409 104.697C122.823 104.63 123.238 104.557 123.652 104.48L123.469 103.497ZM122.248 103.71L122.11 102.72C121.702 102.777 121.331 102.829 120.998 102.877L121.14 103.866L121.281 104.856C121.611 104.809 121.98 104.757 122.386 104.701L122.248 103.71ZM121.14 103.866L120.995 102.877C120.219 102.991 119.512 103.176 118.885 103.444L119.279 104.364L119.673 105.283C120.107 105.097 120.641 104.95 121.285 104.856L121.14 103.866ZM119.279 104.364L118.885 103.444C118.225 103.727 117.662 104.133 117.246 104.684L118.043 105.287L118.841 105.89C119.012 105.664 119.273 105.454 119.673 105.283L119.279 104.364ZM118.043 105.287L117.253 104.674C116.799 105.259 116.603 105.96 116.603 106.707H117.603H118.603C118.603 106.318 118.7 106.072 118.834 105.9L118.043 105.287ZM117.603 106.707H116.603C116.603 107.808 117.021 108.757 117.908 109.404L118.498 108.597L119.088 107.789C118.781 107.565 118.603 107.255 118.603 106.707H117.603ZM118.498 108.597L117.923 109.415C118.735 109.986 119.717 110.236 120.799 110.236V109.236V108.236C120.024 108.236 119.472 108.059 119.073 107.779L118.498 108.597ZM136.048 113H135.048V114H136.048V113ZM136.048 91.1818V90.1818H135.048V91.1818H136.048ZM141.815 91.1818H142.815V90.1818H141.815V91.1818ZM141.815 95.0312H140.815V96.0312H141.815V95.0312ZM142.07 95.0312V96.0312H142.776L143.013 95.3663L142.07 95.0312ZM144.343 92.0057L143.772 91.1851L144.343 92.0057ZM151.971 92.0199L151.391 92.8346L151.396 92.8381L151.971 92.0199ZM154.073 95.0312L153.109 95.2974L153.312 96.0312H154.073V95.0312ZM154.3 95.0312V96.0312H155.006L155.242 95.3667L154.3 95.0312ZM156.715 92.0341L157.256 92.8755L157.257 92.8744L156.715 92.0341ZM165.835 92.8438L165.12 93.543L165.125 93.5482L165.835 92.8438ZM167.752 113V114H168.752V113H167.752ZM161.715 113H160.715V114H161.715V113ZM160.749 96.7926L160.064 97.5208V97.5208L160.749 96.7926ZM155.763 96.9347L156.51 97.5997L156.515 97.5946L155.763 96.9347ZM154.84 113V114H155.84V113H154.84ZM148.974 113H147.974V114H148.974V113ZM148.05 96.8352L147.327 97.526L147.333 97.5315L148.05 96.8352ZM143.832 96.3949L144.362 97.2429L144.366 97.2404L143.832 96.3949ZM142.567 97.8011L143.453 98.2652L143.456 98.2594L142.567 97.8011ZM142.099 113V114H143.099V113H142.099ZM136.048 113H137.048V91.1818H136.048H135.048V113H136.048ZM136.048 91.1818V92.1818H141.815V91.1818V90.1818H136.048V91.1818ZM141.815 91.1818H140.815V95.0312H141.815H142.815V91.1818H141.815ZM141.815 95.0312V96.0312H142.07V95.0312V94.0312H141.815V95.0312ZM142.07 95.0312L143.013 95.3663C143.401 94.274 144.034 93.4395 144.915 92.8263L144.343 92.0057L143.772 91.1851C142.531 92.0491 141.649 93.2317 141.128 94.6962L142.07 95.0312ZM144.343 92.0057L144.915 92.8263C145.784 92.2206 146.847 91.8977 148.15 91.8977V90.8977V89.8977C146.498 89.8977 145.023 90.3135 143.772 91.1851L144.343 92.0057ZM148.15 90.8977V91.8977C149.473 91.8977 150.535 92.2255 151.391 92.8346L151.971 92.0199L152.551 91.2052C151.304 90.3181 149.82 89.8977 148.15 89.8977V90.8977ZM151.971 92.0199L151.396 92.8381C152.252 93.4398 152.819 94.246 153.109 95.2974L154.073 95.0312L155.037 94.7651C154.627 93.2786 153.792 92.0772 152.546 91.2017L151.971 92.0199ZM154.073 95.0312V96.0312H154.3V95.0312V94.0312H154.073V95.0312ZM154.3 95.0312L155.242 95.3667C155.61 94.3346 156.268 93.5096 157.256 92.8755L156.715 92.0341L156.175 91.1927C154.833 92.0548 153.881 93.2279 153.358 94.6958L154.3 95.0312ZM156.715 92.0341L157.257 92.8744C158.247 92.2356 159.44 91.8977 160.877 91.8977V90.8977V89.8977C159.113 89.8977 157.531 90.3174 156.173 91.1938L156.715 92.0341ZM160.877 90.8977V91.8977C162.68 91.8977 164.063 92.4623 165.12 93.543L165.835 92.8438L166.549 92.1445C165.069 90.6306 163.146 89.8977 160.877 89.8977V90.8977ZM165.835 92.8438L165.125 93.5482C166.166 94.5968 166.752 96.1396 166.752 98.3267H167.752H168.752C168.752 95.7789 168.06 93.6664 166.544 92.1393L165.835 92.8438ZM167.752 98.3267H166.752V113H167.752H168.752V98.3267H167.752ZM167.752 113V112H161.715V113V114H167.752V113ZM161.715 113H162.715V99.5199H161.715H160.715V113H161.715ZM161.715 99.5199H162.715C162.715 98.1376 162.345 96.9213 161.435 96.0644L160.749 96.7926L160.064 97.5208C160.441 97.876 160.715 98.4779 160.715 99.5199H161.715ZM160.749 96.7926L161.435 96.0644C160.587 95.267 159.53 94.8835 158.335 94.8835V95.8835V96.8835C159.071 96.8835 159.623 97.1062 160.064 97.5208L160.749 96.7926ZM158.335 95.8835V94.8835C157.005 94.8835 155.852 95.3189 155.012 96.2747L155.763 96.9347L156.515 97.5946C156.906 97.1489 157.467 96.8835 158.335 96.8835V95.8835ZM155.763 96.9347L155.017 96.2697C154.203 97.1834 153.84 98.3529 153.84 99.6761H154.84H155.84C155.84 98.7267 156.093 98.0685 156.51 97.5997L155.763 96.9347ZM154.84 99.6761H153.84V113H154.84H155.84V99.6761H154.84ZM154.84 113V112H148.974V113V114H154.84V113ZM148.974 113H149.974V99.392H148.974H147.974V113H148.974ZM148.974 99.392H149.974C149.974 98.1201 149.602 96.9979 148.768 96.1389L148.05 96.8352L147.333 97.5315C147.73 97.9415 147.974 98.5238 147.974 99.392H148.974ZM148.05 96.8352L148.774 96.1445C147.953 95.2854 146.877 94.8835 145.65 94.8835V95.8835V96.8835C146.411 96.8835 146.936 97.1161 147.327 97.526L148.05 96.8352ZM145.65 95.8835V94.8835C144.799 94.8835 144.006 95.1021 143.298 95.5494L143.832 96.3949L144.366 97.2404C144.737 97.0059 145.156 96.8835 145.65 96.8835V95.8835ZM143.832 96.3949L143.302 95.5469C142.605 95.9821 142.066 96.5919 141.679 97.3428L142.567 97.8011L143.456 98.2594C143.694 97.7982 143.997 97.4705 144.362 97.2429L143.832 96.3949ZM142.567 97.8011L141.682 97.3371C141.281 98.1023 141.099 98.9682 141.099 99.9034H142.099H143.099C143.099 99.2287 143.229 98.6931 143.453 98.2651L142.567 97.8011ZM142.099 99.9034H141.099V113H142.099H143.099V99.9034H142.099ZM142.099 113V112H136.048V113V114H142.099V113ZM172.532 113H171.532V114H172.532V113ZM172.532 91.1818V90.1818H171.532V91.1818H172.532ZM178.583 91.1818H179.583V90.1818H178.583V91.1818ZM178.583 113V114H179.583V113H178.583ZM173.256 87.4744L172.566 88.1975L172.571 88.2028L172.577 88.208L173.256 87.4744ZM173.256 83.1562L173.941 83.8848L173.942 83.8844L173.256 83.1562ZM177.873 83.1562L177.182 83.8794L177.188 83.8846L177.193 83.8898L177.873 83.1562ZM177.873 87.4744L178.558 88.2029L178.558 88.2026L177.873 87.4744ZM172.532 113H173.532V91.1818H172.532H171.532V113H172.532ZM172.532 91.1818V92.1818H178.583V91.1818V90.1818H172.532V91.1818ZM178.583 91.1818H177.583V113H178.583H179.583V91.1818H178.583ZM178.583 113V112H172.532V113V114H178.583V113ZM175.572 88.3693V87.3693C174.917 87.3693 174.39 87.1615 173.936 86.7409L173.256 87.4744L172.577 88.208C173.411 88.9805 174.427 89.3693 175.572 89.3693V88.3693ZM173.256 87.4744L173.947 86.7513C173.501 86.3252 173.305 85.8584 173.305 85.3011H172.305H171.305C171.305 86.4295 171.743 87.4115 172.566 88.1975L173.256 87.4744ZM172.305 85.3011H173.305C173.305 84.7574 173.498 84.302 173.941 83.8848L173.256 83.1562L172.571 82.4277C171.746 83.2037 171.305 84.1782 171.305 85.3011H172.305ZM173.256 83.1562L173.942 83.8844C174.397 83.4563 174.922 83.2472 175.572 83.2472V82.2472V81.2472C174.422 81.2472 173.404 81.6441 172.571 82.4281L173.256 83.1562ZM175.572 82.2472V83.2472C176.221 83.2472 176.739 83.456 177.182 83.8794L177.873 83.1562L178.564 82.4331C177.738 81.6444 176.721 81.2472 175.572 81.2472V82.2472ZM177.873 83.1562L177.193 83.8898C177.645 84.3085 177.839 84.7626 177.839 85.3011H178.839H179.839C179.839 84.173 179.388 83.1972 178.552 82.4227L177.873 83.1562ZM178.839 85.3011H177.839C177.839 85.8533 177.642 86.3187 177.188 86.7462L177.873 87.4744L178.558 88.2026C179.392 87.418 179.839 86.4346 179.839 85.3011H178.839ZM177.873 87.4744L177.188 86.7459C176.745 87.1618 176.226 87.3693 175.572 87.3693V88.3693V89.3693C176.717 89.3693 177.731 88.9802 178.558 88.2029L177.873 87.4744ZM189.482 100.386L188.482 100.376V100.386H189.482ZM189.482 113V114H190.482V113H189.482ZM183.43 113H182.43V114H183.43V113ZM183.43 91.1818V90.1818H182.43V91.1818H183.43ZM189.197 91.1818H190.197V90.1818H189.197V91.1818ZM189.197 95.0312H188.197V96.0312H189.197V95.0312ZM189.453 95.0312V96.0312H190.143L190.388 95.387L189.453 95.0312ZM191.882 92.0199L192.427 92.8583L192.432 92.8551L191.882 92.0199ZM199.979 91.892L200.486 91.0301L199.979 91.892ZM202.607 94.733L201.715 95.1856L201.716 95.1884L202.607 94.733ZM203.544 113V114H204.544V113H203.544ZM197.493 113H196.493V114H197.493V113ZM197.493 100.188L196.493 100.18V100.188H197.493ZM196.47 97.0625L195.731 97.7366L195.736 97.7412L196.47 97.0625ZM191.456 96.4517L190.967 95.5794L190.961 95.5826L191.456 96.4517ZM190.007 97.9858L189.12 97.5236L189.118 97.5284L190.007 97.9858ZM189.482 100.386H188.482V113H189.482H190.482V100.386H189.482ZM189.482 113V112H183.43V113V114H189.482V113ZM183.43 113H184.43V91.1818H183.43H182.43V113H183.43ZM183.43 91.1818V92.1818H189.197V91.1818V90.1818H183.43V91.1818ZM189.197 91.1818H188.197V95.0312H189.197H190.197V91.1818H189.197ZM189.197 95.0312V96.0312H189.453V95.0312V94.0312H189.197V95.0312ZM189.453 95.0312L190.388 95.387C190.795 94.3158 191.469 93.4812 192.427 92.8583L191.882 92.0199L191.337 91.1814C190.023 92.0358 189.077 93.2088 188.519 94.6755L189.453 95.0312ZM191.882 92.0199L192.432 92.8551C193.376 92.2335 194.554 91.8977 196.016 91.8977V90.8977V89.8977C194.239 89.8977 192.661 90.31 191.332 91.1846L191.882 92.0199ZM196.016 90.8977V91.8977C197.381 91.8977 198.521 92.195 199.472 92.754L199.979 91.892L200.486 91.0301C199.182 90.2633 197.68 89.8977 196.016 89.8977V90.8977ZM199.979 91.892L199.472 92.754C200.424 93.3145 201.171 94.1149 201.715 95.1856L202.607 94.733L203.498 94.2803C202.792 92.8889 201.787 91.7954 200.486 91.0301L199.979 91.892ZM202.607 94.733L201.716 95.1884C202.254 96.2397 202.544 97.5346 202.544 99.108H203.544H204.544C204.544 97.2911 204.209 95.6694 203.497 94.2775L202.607 94.733ZM203.544 99.108H202.544V113H203.544H204.544V99.108H203.544ZM203.544 113V112H197.493V113V114H203.544V113ZM197.493 113H198.493V100.188H197.493H196.493V113H197.493ZM197.493 100.188L198.493 100.195C198.504 98.6866 198.117 97.3707 197.205 96.3838L196.47 97.0625L195.736 97.7412C196.206 98.2505 196.501 99.0179 196.493 100.18L197.493 100.188ZM196.47 97.0625L197.209 96.3884C196.293 95.3853 195.052 94.9261 193.615 94.9261V95.9261V96.9261C194.602 96.9261 195.264 97.2245 195.731 97.7366L196.47 97.0625ZM193.615 95.9261V94.9261C192.653 94.9261 191.761 95.1344 190.967 95.5794L191.456 96.4517L191.945 97.324C192.401 97.0682 192.948 96.9261 193.615 96.9261V95.9261ZM191.456 96.4517L190.961 95.5826C190.167 96.0349 189.553 96.6934 189.12 97.5237L190.007 97.9858L190.894 98.4479C191.162 97.9335 191.514 97.5693 191.951 97.3208L191.456 96.4517ZM190.007 97.9858L189.118 97.5284C188.69 98.3608 188.492 99.3222 188.482 100.376L189.482 100.386L190.481 100.396C190.49 99.5755 190.643 98.9365 190.896 98.4431L190.007 97.9858ZM213.1 120.827L213.46 119.894L213.456 119.892L213.1 120.827ZM209.776 118.653L209.032 119.321L209.776 118.653ZM208.171 115.557L208.038 114.566L206.966 114.71L207.193 115.767L208.171 115.557ZM213.768 114.804L214.699 114.44L214.413 113.708L213.634 113.813L213.768 114.804ZM214.577 116.026L215.293 115.327L214.577 116.026ZM216.04 116.935L216.399 116.001L216.392 115.998L216.04 116.935ZM221.538 116.324L220.945 115.519L220.935 115.526L221.538 116.324ZM222.83 109.136H223.83V108.136H222.83V109.136ZM222.575 109.136V108.136H221.921L221.658 108.736L222.575 109.136ZM221.381 110.855L222.095 111.556L221.381 110.855ZM211.879 111.551L211.38 112.418L211.388 112.422L211.879 111.551ZM208.683 108.043L207.787 108.488L207.79 108.494L208.683 108.043ZM208.711 95.8551L207.811 95.4182L208.711 95.8551ZM211.921 92.1335L211.399 91.2808L211.396 91.2825L211.921 92.1335ZM219.407 91.5227L218.956 92.4151L218.964 92.4192L219.407 91.5227ZM221.396 93.0568L220.621 93.6888L220.626 93.6953L220.631 93.7017L221.396 93.0568ZM222.575 94.8466L221.669 95.2703L221.938 95.8466H222.575V94.8466ZM222.802 94.8466V95.8466H223.802V94.8466H222.802ZM222.802 91.1818V90.1818H221.802V91.1818H222.802ZM228.81 91.1818H229.81V90.1818H228.81V91.1818ZM227.447 117.872L226.638 117.284L227.447 117.872ZM223.668 120.685L223.306 119.752L223.3 119.755L223.668 120.685ZM220.742 107.418L221.326 108.23L221.328 108.228L220.742 107.418ZM222.305 105.315L221.377 104.942L221.375 104.947L222.305 105.315ZM222.319 98.696L221.384 99.0512L221.385 99.0544L222.319 98.696ZM215.756 96.5227L216.37 97.3121L216.377 97.3068L215.756 96.5227ZM214.208 98.7386L215.146 99.0856L214.208 98.7386ZM214.208 105.287L213.274 105.643L213.278 105.655L214.208 105.287ZM215.756 107.403L215.158 108.205L215.165 108.209L215.171 108.214L215.756 107.403ZM218.143 121.636V120.636C216.27 120.636 214.717 120.378 213.46 119.894L213.1 120.827L212.741 121.76C214.286 122.355 216.095 122.636 218.143 122.636V121.636ZM213.1 120.827L213.456 119.892C212.182 119.407 211.218 118.764 210.521 117.986L209.776 118.653L209.032 119.321C209.982 120.38 211.234 121.186 212.744 121.761L213.1 120.827ZM209.776 118.653L210.521 117.986C209.807 117.19 209.357 116.313 209.149 115.347L208.171 115.557L207.193 115.767C207.478 117.092 208.098 118.28 209.032 119.321L209.776 118.653ZM208.171 115.557L208.304 116.548L213.901 115.795L213.768 114.804L213.634 113.813L208.038 114.566L208.171 115.557ZM213.768 114.804L212.837 115.168C213.062 115.744 213.411 116.262 213.861 116.724L214.577 116.026L215.293 115.327C215.005 115.032 214.815 114.735 214.699 114.44L213.768 114.804ZM214.577 116.026L213.861 116.724C214.354 117.229 214.976 117.603 215.689 117.871L216.04 116.935L216.392 115.998C215.893 115.811 215.54 115.58 215.293 115.327L214.577 116.026ZM216.04 116.935L215.682 117.868C216.443 118.161 217.32 118.29 218.285 118.29V117.29V116.29C217.488 116.29 216.869 116.182 216.399 116.001L216.04 116.935ZM218.285 117.29V118.29C219.767 118.29 221.078 117.925 222.14 117.122L221.538 116.324L220.935 115.526C220.293 116.011 219.435 116.29 218.285 116.29V117.29ZM221.538 116.324L222.131 117.129C223.341 116.238 223.83 114.807 223.83 113.128H222.83H221.83C221.83 114.442 221.458 115.141 220.945 115.519L221.538 116.324ZM222.83 113.128H223.83V109.136H222.83H221.83V113.128H222.83ZM222.83 109.136V108.136H222.575V109.136V110.136H222.83V109.136ZM222.575 109.136L221.658 108.736C221.449 109.215 221.125 109.689 220.668 110.154L221.381 110.855L222.095 111.556C222.698 110.942 223.17 110.27 223.491 109.537L222.575 109.136ZM221.381 110.855L220.668 110.154C220.249 110.581 219.688 110.951 218.957 111.251L219.336 112.176L219.715 113.102C220.65 112.719 221.453 112.209 222.095 111.556L221.381 110.855ZM219.336 112.176L218.957 111.251C218.273 111.531 217.414 111.688 216.353 111.688V112.688V113.688C217.603 113.688 218.732 113.504 219.715 113.102L219.336 112.176ZM216.353 112.688V111.688C214.876 111.688 213.555 111.348 212.369 110.68L211.879 111.551L211.388 112.422C212.891 113.27 214.554 113.688 216.353 113.688V112.688ZM211.879 111.551L212.377 110.684C211.234 110.028 210.295 109.015 209.575 107.591L208.683 108.043L207.79 108.494C208.661 110.214 209.853 111.541 211.38 112.418L211.879 111.551ZM208.683 108.043L209.578 107.598C208.881 106.196 208.504 104.362 208.504 102.048H207.504H206.504C206.504 104.564 206.912 106.727 207.787 108.488L208.683 108.043ZM207.504 102.048H208.504C208.504 99.6788 208.89 97.7748 209.61 96.292L208.711 95.8551L207.811 95.4182C206.922 97.2498 206.504 99.4746 206.504 102.048H207.504ZM208.711 95.8551L209.61 96.292C210.347 94.7754 211.299 93.6924 212.446 92.9846L211.921 92.1335L211.396 91.2825C209.873 92.2224 208.685 93.6205 207.811 95.4182L208.711 95.8551ZM211.921 92.1335L212.444 92.9862C213.629 92.2602 214.92 91.8977 216.339 91.8977V90.8977V89.8977C214.557 89.8977 212.903 90.3591 211.399 91.2808L211.921 92.1335ZM216.339 90.8977V91.8977C217.452 91.8977 218.309 92.0883 218.956 92.4151L219.407 91.5227L219.858 90.6304C218.857 90.1238 217.669 89.8977 216.339 89.8977V90.8977ZM219.407 91.5227L218.964 92.4192C219.679 92.7729 220.222 93.2003 220.621 93.6888L221.396 93.0568L222.171 92.4249C221.565 91.6823 220.782 91.0869 219.85 90.6262L219.407 91.5227ZM221.396 93.0568L220.631 93.7017C221.098 94.2549 221.439 94.7782 221.669 95.2703L222.575 94.8466L223.48 94.4229C223.161 93.7408 222.716 93.0708 222.16 92.4119L221.396 93.0568ZM222.575 94.8466V95.8466H222.802V94.8466V93.8466H222.575V94.8466ZM222.802 94.8466H223.802V91.1818H222.802H221.802V94.8466H222.802ZM222.802 91.1818V92.1818H228.81V91.1818V90.1818H222.802V91.1818ZM228.81 91.1818H227.81V113.213H228.81H229.81V91.1818H228.81ZM228.81 113.213H227.81C227.81 114.901 227.399 116.237 226.638 117.284L227.447 117.872L228.255 118.46C229.312 117.007 229.81 115.237 229.81 113.213H228.81ZM227.447 117.872L226.638 117.284C225.855 118.361 224.759 119.188 223.306 119.752L223.668 120.685L224.03 121.617C225.797 120.931 227.221 119.883 228.255 118.46L227.447 117.872ZM223.668 120.685L223.3 119.755C221.839 120.334 220.126 120.636 218.143 120.636V121.636V122.636C220.326 122.636 222.297 122.304 224.037 121.614L223.668 120.685ZM218.271 108.142V109.142C219.417 109.142 220.454 108.856 221.326 108.23L220.742 107.418L220.159 106.605C219.685 106.946 219.075 107.142 218.271 107.142V108.142ZM220.742 107.418L221.328 108.228C222.188 107.607 222.816 106.74 223.234 105.683L222.305 105.315L221.375 104.947C221.074 105.708 220.66 106.243 220.157 106.607L220.742 107.418ZM222.305 105.315L223.232 105.688C223.661 104.622 223.859 103.391 223.859 102.02H222.859H221.859C221.859 103.206 221.687 104.171 221.377 104.942L222.305 105.315ZM222.859 102.02H223.859C223.859 100.651 223.666 99.416 223.252 98.3377L222.319 98.696L221.385 99.0544C221.691 99.851 221.859 100.832 221.859 102.02H222.859ZM222.319 98.696L223.254 98.3408C222.84 97.2516 222.218 96.3526 221.363 95.6996L220.756 96.4943L220.149 97.289C220.658 97.6777 221.078 98.2466 221.384 99.0512L222.319 98.696ZM220.756 96.4943L221.363 95.6996C220.484 95.0277 219.434 94.7131 218.271 94.7131V95.7131V96.7131C219.058 96.7131 219.665 96.9192 220.149 97.289L220.756 96.4943ZM218.271 95.7131V94.7131C217.085 94.7131 216.019 95.0393 215.136 95.7387L215.756 96.5227L216.377 97.3068C216.857 96.9266 217.468 96.7131 218.271 96.7131V95.7131ZM215.756 96.5227L215.142 95.7334C214.29 96.3962 213.674 97.2999 213.27 98.3916L214.208 98.7386L215.146 99.0856C215.443 98.2834 215.859 97.7098 216.37 97.3121L215.756 96.5227ZM214.208 98.7386L213.27 98.3916C212.871 99.4718 212.683 100.687 212.683 102.02H213.683H214.683C214.683 100.872 214.845 99.8994 215.146 99.0856L214.208 98.7386ZM213.683 102.02H212.683C212.683 103.368 212.87 104.584 213.274 105.643L214.208 105.287L215.142 104.931C214.846 104.153 214.683 103.19 214.683 102.02H213.683ZM214.208 105.287L213.278 105.655C213.695 106.707 214.314 107.575 215.158 108.205L215.756 107.403L216.355 106.602C215.854 106.228 215.441 105.685 215.138 104.919L214.208 105.287ZM215.756 107.403L215.171 108.214C216.053 108.851 217.105 109.142 218.271 109.142V108.142V107.142C217.447 107.142 216.824 106.941 216.342 106.593L215.756 107.403ZM233.739 113H232.739V114H233.739V113ZM233.739 83.9091V82.9091H232.739V83.9091H233.739ZM239.89 83.9091H240.89V82.9091H239.89V83.9091ZM239.89 95.9119H238.89V96.9119H239.89V95.9119ZM252.376 95.9119V96.9119H253.376V95.9119H252.376ZM252.376 83.9091V82.9091H251.376V83.9091H252.376ZM258.512 83.9091H259.512V82.9091H258.512V83.9091ZM258.512 113V114H259.512V113H258.512ZM252.376 113H251.376V114H252.376V113ZM252.376 100.983H253.376V99.983H252.376V100.983ZM239.89 100.983V99.983H238.89V100.983H239.89ZM239.89 113V114H240.89V113H239.89ZM233.739 113H234.739V83.9091H233.739H232.739V113H233.739ZM233.739 83.9091V84.9091H239.89V83.9091V82.9091H233.739V83.9091ZM239.89 83.9091H238.89V95.9119H239.89H240.89V83.9091H239.89ZM239.89 95.9119V96.9119H252.376V95.9119V94.9119H239.89V95.9119ZM252.376 95.9119H253.376V83.9091H252.376H251.376V95.9119H252.376ZM252.376 83.9091V84.9091H258.512V83.9091V82.9091H252.376V83.9091ZM258.512 83.9091H257.512V113H258.512H259.512V83.9091H258.512ZM258.512 113V112H252.376V113V114H258.512V113ZM252.376 113H253.376V100.983H252.376H251.376V113H252.376ZM252.376 100.983V99.983H239.89V100.983V101.983H252.376V100.983ZM239.89 100.983H238.89V113H239.89H240.89V100.983H239.89ZM239.89 113V112H233.739V113V114H239.89V113ZM277.461 103.71H276.461L276.461 103.72L277.461 103.71ZM277.461 91.1818V90.1818H276.461V91.1818H277.461ZM283.512 91.1818H284.512V90.1818H283.512V91.1818ZM283.512 113V114H284.512V113H283.512ZM277.702 113H276.702V114H277.702V113ZM277.702 109.037H278.702V108.037H277.702V109.037ZM277.475 109.037V108.037H276.789L276.542 108.677L277.475 109.037ZM275.018 112.119L274.457 111.291L274.454 111.294L275.018 112.119ZM267.006 112.29L267.52 111.432L267.006 112.29ZM264.407 109.463L263.514 109.913L263.517 109.919L264.407 109.463ZM263.469 105.074H262.469L262.469 105.079L263.469 105.074ZM263.469 91.1818V90.1818H262.469V91.1818H263.469ZM269.521 91.1818H270.521V90.1818H269.521V91.1818ZM269.521 103.994H268.521L268.521 104.002L269.521 103.994ZM270.558 107.048L271.297 106.375L270.558 107.048ZM275.344 107.673L275.808 108.56L275.818 108.554L275.344 107.673ZM276.879 106.168L276.021 105.653L276.016 105.662L276.879 106.168ZM277.461 103.71H278.461V91.1818H277.461H276.461V103.71H277.461ZM277.461 91.1818V92.1818H283.512V91.1818V90.1818H277.461V91.1818ZM283.512 91.1818H282.512V113H283.512H284.512V91.1818H283.512ZM283.512 113V112H277.702V113V114H283.512V113ZM277.702 113H278.702V109.037H277.702H276.702V113H277.702ZM277.702 109.037V108.037H277.475V109.037V110.037H277.702V109.037ZM277.475 109.037L276.542 108.677C276.124 109.763 275.436 110.628 274.457 111.292L275.018 112.119L275.579 112.947C276.892 112.057 277.842 110.867 278.408 109.396L277.475 109.037ZM275.018 112.119L274.454 111.294C273.513 111.936 272.332 112.284 270.856 112.284V113.284V114.284C272.656 114.284 274.25 113.855 275.582 112.945L275.018 112.119ZM270.856 113.284V112.284C269.554 112.284 268.453 111.99 267.52 111.432L267.006 112.29L266.493 113.148C267.775 113.915 269.241 114.284 270.856 114.284V113.284ZM267.006 112.29L267.52 111.432C266.583 110.871 265.842 110.073 265.297 109.008L264.407 109.463L263.517 109.919C264.221 111.296 265.214 112.383 266.493 113.148L267.006 112.29ZM264.407 109.463L265.3 109.013C264.769 107.959 264.478 106.656 264.469 105.068L263.469 105.074L262.469 105.079C262.48 106.901 262.814 108.524 263.514 109.913L264.407 109.463ZM263.469 105.074H264.469V91.1818H263.469H262.469V105.074H263.469ZM263.469 91.1818V92.1818H269.521V91.1818V90.1818H263.469V91.1818ZM269.521 91.1818H268.521V103.994H269.521H270.521V91.1818H269.521ZM269.521 103.994L268.521 104.002C268.531 105.467 268.929 106.746 269.818 107.722L270.558 107.048L271.297 106.375C270.822 105.854 270.529 105.098 270.521 103.987L269.521 103.994ZM270.558 107.048L269.818 107.722C270.716 108.706 271.913 109.17 273.299 109.17V108.17V107.17C272.393 107.17 271.763 106.886 271.297 106.375L270.558 107.048ZM273.299 108.17V109.17C274.186 109.17 275.027 108.967 275.807 108.56L275.344 107.673L274.881 106.787C274.393 107.042 273.87 107.17 273.299 107.17V108.17ZM275.344 107.673L275.818 108.554C276.625 108.12 277.267 107.483 277.741 106.673L276.879 106.168L276.016 105.662C275.714 106.178 275.333 106.544 274.871 106.792L275.344 107.673ZM276.879 106.168L277.736 106.682C278.251 105.824 278.472 104.813 278.461 103.701L277.461 103.71L276.461 103.72C276.469 104.559 276.302 105.185 276.021 105.653L276.879 106.168ZM288.466 113H287.466V114H288.466V113ZM288.466 83.9091V82.9091H287.466V83.9091H288.466ZM294.517 83.9091H295.517V82.9091H294.517V83.9091ZM294.517 94.8466H293.517V95.8466H294.517V94.8466ZM294.702 94.8466V95.8466H295.347L295.613 95.2582L294.702 94.8466ZM295.852 93.0568L295.083 92.4178L295.082 92.419L295.852 93.0568ZM297.841 91.5227L298.288 92.4172L298.292 92.4151L297.841 91.5227ZM305.312 92.1477L304.786 92.9977L304.79 93.0004L305.312 92.1477ZM308.537 95.8835L307.636 96.3184L307.637 96.3204L308.537 95.8835ZM308.565 108.284L307.66 107.86L307.659 107.862L308.565 108.284ZM305.384 112.077L305.922 112.92L305.923 112.919L305.384 112.077ZM297.898 112.773L297.467 113.675L297.471 113.677L297.898 112.773ZM295.895 111.31L295.142 111.967L295.147 111.973L295.895 111.31ZM294.702 109.506L295.613 109.093L295.346 108.506H294.702V109.506ZM294.432 109.506V108.506H293.432V109.506H294.432ZM294.432 113V114H295.432V113H294.432ZM296.491 107.744L295.871 108.528L295.878 108.534L296.491 107.744ZM301.477 107.73L302.098 108.514L302.105 108.509L301.477 107.73ZM303.026 105.457L302.087 105.111L302.086 105.116L303.026 105.457ZM303.04 98.767L303.979 98.4231L303.04 98.767ZM301.491 96.5227L302.112 95.7387L301.491 96.5227ZM296.477 96.4943L295.87 95.6996L295.865 95.7038L296.477 96.4943ZM294.929 98.7102L293.993 98.3581L294.929 98.7102ZM288.466 113H289.466V83.9091H288.466H287.466V113H288.466ZM288.466 83.9091V84.9091H294.517V83.9091V82.9091H288.466V83.9091ZM294.517 83.9091H293.517V94.8466H294.517H295.517V83.9091H294.517ZM294.517 94.8466V95.8466H294.702V94.8466V93.8466H294.517V94.8466ZM294.702 94.8466L295.613 95.2582C295.834 94.7681 296.165 94.2465 296.622 93.6946L295.852 93.0568L295.082 92.419C294.535 93.0792 294.099 93.7509 293.79 94.435L294.702 94.8466ZM295.852 93.0568L296.621 93.6958C297.033 93.2005 297.581 92.7709 298.288 92.4172L297.841 91.5227L297.394 90.6283C296.472 91.0889 295.694 91.682 295.083 92.4178L295.852 93.0568ZM297.841 91.5227L298.292 92.4151C298.938 92.0883 299.796 91.8977 300.909 91.8977V90.8977V89.8977C299.579 89.8977 298.391 90.1238 297.39 90.6304L297.841 91.5227ZM300.909 90.8977V91.8977C302.315 91.8977 303.6 92.263 304.786 92.9977L305.312 92.1477L305.839 91.2977C304.335 90.3658 302.685 89.8977 300.909 89.8977V90.8977ZM305.312 92.1477L304.79 93.0004C305.945 93.7078 306.9 94.7939 307.636 96.3184L308.537 95.8835L309.437 95.4486C308.564 93.6399 307.37 92.2354 305.835 91.295L305.312 92.1477ZM308.537 95.8835L307.637 96.3204C308.357 97.8019 308.744 99.7194 308.744 102.119H309.744H310.744C310.744 99.5192 310.327 97.2796 309.436 95.4466L308.537 95.8835ZM309.744 102.119H308.744C308.744 104.45 308.367 106.351 307.66 107.86L308.565 108.284L309.471 108.709C310.335 106.865 310.744 104.656 310.744 102.119H309.744ZM308.565 108.284L307.659 107.862C306.95 109.383 306.006 110.49 304.844 111.235L305.384 112.077L305.923 112.919C307.45 111.94 308.628 110.518 309.472 108.706L308.565 108.284ZM305.384 112.077L304.845 111.234C303.679 111.979 302.371 112.355 300.895 112.355V113.355V114.355C302.733 114.355 304.418 113.879 305.922 112.92L305.384 112.077ZM300.895 113.355V112.355C299.827 112.355 298.982 112.178 298.324 111.868L297.898 112.773L297.471 113.677C298.461 114.144 299.614 114.355 300.895 114.355V113.355ZM297.898 112.773L298.328 111.87C297.617 111.531 297.063 111.119 296.643 110.646L295.895 111.31L295.147 111.973C295.769 112.674 296.55 113.238 297.467 113.675L297.898 112.773ZM295.895 111.31L296.648 110.652C296.18 110.115 295.84 109.595 295.613 109.093L294.702 109.506L293.791 109.918C294.113 110.628 294.568 111.311 295.142 111.967L295.895 111.31ZM294.702 109.506V108.506H294.432V109.506V110.506H294.702V109.506ZM294.432 109.506H293.432V113H294.432H295.432V109.506H294.432ZM294.432 113V112H288.466V113V114H294.432V113ZM294.389 102.091H293.389C293.389 103.478 293.581 104.733 293.992 105.835L294.929 105.486L295.866 105.137C295.557 104.307 295.389 103.299 295.389 102.091H294.389ZM294.929 105.486L293.992 105.835C294.404 106.94 295.021 107.856 295.871 108.528L296.491 107.744L297.112 106.96C296.598 106.553 296.174 105.963 295.866 105.137L294.929 105.486ZM296.491 107.744L295.878 108.534C296.757 109.218 297.81 109.54 298.977 109.54V108.54V107.54C298.194 107.54 297.589 107.331 297.105 106.955L296.491 107.744ZM298.977 108.54V109.54C300.156 109.54 301.216 109.212 302.098 108.514L301.477 107.73L300.857 106.946C300.375 107.328 299.768 107.54 298.977 107.54V108.54ZM301.477 107.73L302.105 108.509C302.952 107.826 303.564 106.906 303.966 105.798L303.026 105.457L302.086 105.116C301.786 105.941 301.366 106.535 300.85 106.951L301.477 107.73ZM303.026 105.457L303.964 105.804C304.372 104.696 304.565 103.453 304.565 102.091H303.565H302.565C302.565 103.267 302.398 104.268 302.087 105.111L303.026 105.457ZM303.565 102.091H304.565C304.565 100.741 304.378 99.5123 303.979 98.4231L303.04 98.767L302.101 99.111C302.403 99.9347 302.565 100.922 302.565 102.091H303.565ZM303.04 98.767L303.979 98.4231C303.576 97.3235 302.962 96.4114 302.112 95.7387L301.491 96.5227L300.871 97.3068C301.385 97.7136 301.803 98.2977 302.101 99.111L303.04 98.767ZM301.491 96.5227L302.112 95.7387C301.229 95.0393 300.163 94.7131 298.977 94.7131V95.7131V96.7131C299.78 96.7131 300.391 96.9266 300.871 97.3068L301.491 96.5227ZM298.977 95.7131V94.7131C297.807 94.7131 296.752 95.0264 295.87 95.6996L296.477 96.4943L297.084 97.289C297.567 96.9205 298.178 96.7131 298.977 96.7131V95.7131ZM296.477 96.4943L295.865 95.7038C295.019 96.359 294.405 97.2635 293.993 98.3581L294.929 98.7102L295.865 99.0624C296.173 98.244 296.591 97.6713 297.09 97.2849L296.477 96.4943ZM294.929 98.7102L293.993 98.3581C293.581 99.4529 293.389 100.704 293.389 102.091H294.389H295.389C295.389 100.883 295.557 99.8805 295.865 99.0624L294.929 98.7102Z" fill="white" mask="url(#path-1-outside-1_244_2)"/>
</g>
<defs>
<filter id="filter0_ddddddd_244_2" x="0.0166016" y="0.24707" width="391.728" height="203.39" filterUnits="userSpaceOnUse" color-interpolation-filters="sRGB">
<feFlood flood-opacity="0" result="BackgroundImageFix"/>
<feColorMatrix in="SourceAlpha" type="matrix" values="0 0 0 0 0 0 0 0 0 0 0 0 0 0 0 0 0 0 127 0" result="hardAlpha"/>
<feOffset/>
<feGaussianBlur stdDeviation="40.5"/>
<feComposite in2="hardAlpha" operator="out"/>
<feColorMatrix type="matrix" values="0 0 0 0 1 0 0 0 0 0.317647 0 0 0 0 0 0 0 0 1 0"/>
<feBlend mode="normal" in2="BackgroundImageFix" result="effect1_dropShadow_244_2"/>
<feColorMatrix in="SourceAlpha" type="matrix" values="0 0 0 0 0 0 0 0 0 0 0 0 0 0 0 0 0 0 127 0" result="hardAlpha"/>
<feOffset/>
<feGaussianBlur stdDeviation="40"/>
<feComposite in2="hardAlpha" operator="out"/>
<feColorMatrix type="matrix" values="0 0 0 0 1 0 0 0 0 0.317647 0 0 0 0 0 0 0 0 1 0"/>
<feBlend mode="normal" in2="effect1_dropShadow_244_2" result="effect2_dropShadow_244_2"/>
<feColorMatrix in="SourceAlpha" type="matrix" values="0 0 0 0 0 0 0 0 0 0 0 0 0 0 0 0 0 0 127 0" result="hardAlpha"/>
<feOffset/>
<feGaussianBlur stdDeviation="36.5"/>
<feComposite in2="hardAlpha" operator="out"/>
<feColorMatrix type="matrix" values="0 0 0 0 1 0 0 0 0 0.317647 0 0 0 0 0 0 0 0 1 0"/>
<feBlend mode="normal" in2="effect2_dropShadow_244_2" result="effect3_dropShadow_244_2"/>
<feColorMatrix in="SourceAlpha" type="matrix" values="0 0 0 0 0 0 0 0 0 0 0 0 0 0 0 0 0 0 127 0" result="hardAlpha"/>
<feOffset/>
<feGaussianBlur stdDeviation="19"/>
<feComposite in2="hardAlpha" operator="out"/>
<feColorMatrix type="matrix" values="0 0 0 0 1 0 0 0 0 0.317647 0 0 0 0 0 0 0 0 1 0"/>
<feBlend mode="normal" in2="effect3_dropShadow_244_2" result="effect4_dropShadow_244_2"/>
<feColorMatrix in="SourceAlpha" type="matrix" values="0 0 0 0 0 0 0 0 0 0 0 0 0 0 0 0 0 0 127 0" result="hardAlpha"/>
<feOffset/>
<feGaussianBlur stdDeviation="9"/>
<feComposite in2="hardAlpha" operator="out"/>
<feColorMatrix type="matrix" values="0 0 0 0 1 0 0 0 0 0.92549 0 0 0 0 0.886275 0 0 0 1 0"/>
<feBlend mode="normal" in2="effect4_dropShadow_244_2" result="effect5_dropShadow_244_2"/>
<feColorMatrix in="SourceAlpha" type="matrix" values="0 0 0 0 0 0 0 0 0 0 0 0 0 0 0 0 0 0 127 0" result="hardAlpha"/>
<feOffset/>
<feGaussianBlur stdDeviation="5"/>
<feComposite in2="hardAlpha" operator="out"/>
<feColorMatrix type="matrix" values="0 0 0 0 1 0 0 0 0 0.92549 0 0 0 0 0.886275 0 0 0 1 0"/>
<feBlend mode="normal" in2="effect5_dropShadow_244_2" result="effect6_dropShadow_244_2"/>
<feColorMatrix in="SourceAlpha" type="matrix" values="0 0 0 0 0 0 0 0 0 0 0 0 0 0 0 0 0 0 127 0" result="hardAlpha"/>
<feOffset/>
<feGaussianBlur stdDeviation="2"/>
<feComposite in2="hardAlpha" operator="out"/>
<feColorMatrix type="matrix" values="0 0 0 0 1 0 0 0 0 0.92549 0 0 0 0 0.886275 0 0 0 1 0"/>
<feBlend mode="normal" in2="effect6_dropShadow_244_2" result="effect7_dropShadow_244_2"/>
<feBlend mode="normal" in="SourceGraphic" in2="effect7_dropShadow_244_2" result="shape"/>
</filter>
<filter id="filter1_ddddddd_244_3" x="0.0166016" y="0.24707" width="379.728" height="191.39" filterUnits="userSpaceOnUse" color-interpolation-filters="sRGB">
<feFlood flood-opacity="0" result="BackgroundImageFix"/>
<feColorMatrix in="SourceAlpha" type="matrix" values="0 0 0 0 0 0 0 0 0 0 0 0 0 0 0 0 0 0 127 0" result="hardAlpha"/>
<feOffset/>
<feGaussianBlur stdDeviation="37.5"/>
<feComposite in2="hardAlpha" operator="out"/>
<feColorMatrix type="matrix" values="0 0 0 0 1 0 0 0 0 0.317647 0 0 0 0 0 0 0 0 1 0"/>
<feBlend mode="normal" in2="BackgroundImageFix" result="effect1_dropShadow_244_3"/>
<feColorMatrix in="SourceAlpha" type="matrix" values="0 0 0 0 0 0 0 0 0 0 0 0 0 0 0 0 0 0 127 0" result="hardAlpha"/>
<feOffset/>
<feGaussianBlur stdDeviation="35"/>
<feComposite in2="hardAlpha" operator="out"/>
<feColorMatrix type="matrix" values="0 0 0 0 1 0 0 0 0 0.317647 0 0 0 0 0 0 0 0 1 0"/>
<feBlend mode="normal" in2="effect1_dropShadow_244_3" result="effect2_dropShadow_244_3"/>
<feColorMatrix in="SourceAlpha" type="matrix" values="0 0 0 0 0 0 0 0 0 0 0 0 0 0 0 0 0 0 127 0" result="hardAlpha"/>
<feOffset/>
<feGaussianBlur stdDeviation="33"/>
<feComposite in2="hardAlpha" operator="out"/>
<feColorMatrix type="matrix" values="0 0 0 0 1 0 0 0 0 0.317647 0 0 0 0 0 0 0 0 1 0"/>
<feBlend mode="normal" in2="effect2_dropShadow_244_3" result="effect3_dropShadow_244_3"/>
<feColorMatrix in="SourceAlpha" type="matrix" values="0 0 0 0 0 0 0 0 0 0 0 0 0 0 0 0 0 0 127 0" result="hardAlpha"/>
<feOffset/>
<feGaussianBlur stdDeviation="18"/>
<feComposite in2="hardAlpha" operator="out"/>
<feColorMatrix type="matrix" values="0 0 0 0 1 0 0 0 0 0.317647 0 0 0 0 0 0 0 0 1 0"/>
<feBlend mode="normal" in2="effect3_dropShadow_244_3" result="effect4_dropShadow_244_3"/>
<feColorMatrix in="SourceAlpha" type="matrix" values="0 0 0 0 0 0 0 0 0 0 0 0 0 0 0 0 0 0 127 0" result="hardAlpha"/>
<feOffset/>
<feGaussianBlur stdDeviation="9"/>
<feComposite in2="hardAlpha" operator="out"/>
<feColorMatrix type="matrix" values="0 0 0 0 1 0 0 0 0 0.92549 0 0 0 0 0.886275 0 0 0 1 0"/>
<feBlend mode="normal" in2="effect4_dropShadow_244_3" result="effect5_dropShadow_244_3"/>
<feColorMatrix in="SourceAlpha" type="matrix" values="0 0 0 0 0 0 0 0 0 0 0 0 0 0 0 0 0 0 127 0" result="hardAlpha"/>
<feOffset/>
<feGaussianBlur stdDeviation="5"/>
<feComposite in2="hardAlpha" operator="out"/>
<feColorMatrix type="matrix" values="0 0 0 0 1 0 0 0 0 0.92549 0 0 0 0 0.886275 0 0 0 1 0"/>
<feBlend mode="normal" in2="effect5_dropShadow_244_3" result="effect6_dropShadow_244_3"/>
<feColorMatrix in="SourceAlpha" type="matrix" values="0 0 0 0 0 0 0 0 0 0 0 0 0 0 0 0 0 0 127 0" result="hardAlpha"/>
<feOffset/>
<feGaussianBlur stdDeviation="2"/>
<feComposite in2="hardAlpha" operator="out"/>
<feColorMatrix type="matrix" values="0 0 0 0 1 0 0 0 0 0.92549 0 0 0 0 0.886275 0 0 0 1 0"/>
<feBlend mode="normal" in2="effect6_dropShadow_244_3" result="effect7_dropShadow_244_3"/>
<feBlend mode="normal" in="SourceGraphic" in2="effect7_dropShadow_244_3" result="shape"/>
</filter>
</defs>
</svg>

